<?xml version="1.0" standalone="no"?>
<!DOCTYPE svg PUBLIC "-//W3C//DTD SVG 1.1//EN" "http://www.w3.org/Graphics/SVG/1.1/DTD/svg11.dtd" >
<svg xmlns="http://www.w3.org/2000/svg" xmlns:xlink="http://www.w3.org/1999/xlink" version="1.1">
<metadata>
Created by FontForge 20200427 at Mon Jun 22 21:58:36 2015
 By www
Copyright (c) 2013, Juergen Huber and Martin Wenzel. All rights reserved.
</metadata>
<defs>
<font id="MMHeadlineProWebTT-Regular" horiz-adv-x="901" >
  <font-face 
    font-family="MM Headline Pro WebTT Regular"
    font-weight="800"
    font-style="italic"
    font-stretch="condensed"
    units-per-em="2048"
    panose-1="2 11 9 6 3 5 0 2 2 4"
    ascent="1638"
    descent="-410"
    x-height="1090"
    cap-height="1352"
    bbox="-209 -358 1999 1667"
    underline-thickness="196"
    underline-position="-1185"
    slope="-10"
    unicode-range="U+000D-FB02"
  />
<missing-glyph horiz-adv-x="748" 
d="M68 0v1365h544v-1365h-544zM136 68h408v1229h-408v-1229z" />
    <glyph glyph-name=".notdef" horiz-adv-x="748" 
d="M68 0v1365h544v-1365h-544zM136 68h408v1229h-408v-1229z" />
    <glyph glyph-name="glyph1" horiz-adv-x="0" 
 />
    <glyph glyph-name="uni000D" unicode="&#xd;" horiz-adv-x="0" 
 />
    <glyph glyph-name="space" unicode=" " horiz-adv-x="280" 
 />
    <glyph glyph-name="exclam" unicode="!" horiz-adv-x="555" 
d="M-14 0l61 322h348l-59 -322h-350zM88 436l133 916l404 41l-232 -957h-305z" />
    <glyph glyph-name="quotedbl" unicode="&#x22;" horiz-adv-x="794" 
d="M96 786l107 566h295l-181 -566h-221zM492 786l106 566h295l-180 -566h-221z" />
    <glyph glyph-name="numbersign" unicode="#" horiz-adv-x="1337" 
d="M-23 295l86 248h177l100 286h-184l86 248h184l96 275h283l-96 -275h213l96 275h282l-96 -275h185l-89 -248h-182l-100 -286h190l-86 -248h-192l-103 -295h-282l102 295h-213l-102 -295h-283l103 295h-175zM522 543h213l101 286h-213z" />
    <glyph glyph-name="dollar" unicode="$" horiz-adv-x="798" 
d="M-29 25l27 340q35 -14 106.5 -31t163.5 -17h21.5t21.5 2q4 14 8.5 32t4.5 36q0 37 -14.5 68.5t-35.5 76.5l-69 154q-31 66 -49.5 135.5t-18.5 132.5q0 178 86 279.5t234 130.5l43 233h192l-43 -223q88 -6 144.5 -20.5t87.5 -24.5l-78 -321q-47 16 -90 24t-97 8
q-102 0 -102 -79q0 -35 10.5 -66t36.5 -90l66 -156q25 -59 48 -127.5t23 -142.5q0 -182 -85 -277.5t-222 -117.5l-43 -230h-190l41 226q-88 6 -143.5 20t-84.5 25z" />
    <glyph glyph-name="percent" unicode="%" horiz-adv-x="1431" 
d="M90 881q0 53 7 112.5t30 136.5q23 82 54.5 130.5t71.5 74t89 33.5t109 8q111 0 166 -56t55 -151q0 -53 -8.5 -112.5t-28.5 -136.5q-23 -80 -52.5 -128.5t-69.5 -75t-90.5 -34.5t-111.5 -8q-119 0 -170 56t-51 151zM150 0l903 1352h254l-904 -1352h-253zM307 838
q12 -2 16.5 -2h10.5q16 0 27.5 4t21.5 17t18.5 39t18.5 67q6 20 11 49.5t10 62.5t9.5 63.5t4.5 55.5v18q-8 2 -23 2q-16 0 -29.5 -5t-23.5 -19t-20.5 -40t-20.5 -69q-10 -45 -20.5 -109.5t-10.5 -113.5v-20zM784 182q0 53 7.5 112.5t29.5 137.5q23 82 54.5 130t71.5 74
t89 34t109 8q111 0 166 -56.5t55 -150.5q0 -53 -8 -112.5t-29 -137.5q-23 -80 -52.5 -128t-69.5 -74.5t-90 -35t-111 -8.5q-119 0 -170.5 56.5t-51.5 150.5zM1001 139q12 -2 15.5 -2h11.5q16 0 27.5 4t21.5 17.5t18.5 39t18.5 66.5q6 20 11 50l10.5 63t9.5 63.5t4 55.5v18
q-8 2 -23 2q-16 0 -29.5 -5t-23.5 -19.5t-20.5 -40t-20.5 -68.5q-10 -45 -20.5 -109.5t-10.5 -113.5v-21z" />
    <glyph glyph-name="ampersand" unicode="&#x26;" horiz-adv-x="1011" 
d="M8 279q0 39 2 69.5t7.5 58t11.5 55t14 58.5q29 104 89.5 163.5t111.5 80.5v4q-49 53 -75 109.5t-26 126.5q0 51 10.5 111.5t39.5 109.5q45 78 137 114.5t219 36.5q231 0 366 -57l-65 -299q-53 20 -122 32.5t-128 12.5q-53 0 -84 -20.5t-31 -79.5q0 -43 17.5 -74t34.5 -51
h499l-82 -289h-118l-88 -490q-35 -20 -85.5 -35.5t-107.5 -26.5t-117.5 -17.5t-111.5 -6.5q-172 0 -245 76t-73 228zM350 315q0 -31 9 -41t38 -10t74 10l49 277h-125q-23 -68 -34 -129.5t-11 -106.5z" />
    <glyph glyph-name="quotesingle" unicode="'" horiz-adv-x="399" 
d="M96 786l107 566h295l-181 -566h-221z" />
    <glyph glyph-name="parenleft" unicode="(" horiz-adv-x="487" 
d="M33 344q0 322 88 614.5t266 536.5l231 -43q-164 -287 -241.5 -563.5t-77.5 -573.5q0 -209 37 -430l-254 -22q-27 123 -38 242.5t-11 238.5z" />
    <glyph glyph-name="parenright" unicode=")" horiz-adv-x="487" 
d="M-106 -106q164 287 241.5 563t77.5 573q0 209 -37 430l254 23q27 -123 38 -243t11 -239q0 -322 -88 -614.5t-266 -536.5z" />
    <glyph glyph-name="asterisk" unicode="*" horiz-adv-x="937" 
d="M94 950l109 215l112 -39q16 -6 60.5 -31.5t87.5 -52.5q0 57 1 110.5t5 76.5l23 123h223l-23 -123q-2 -10 -8 -29.5l-14 -45.5t-18.5 -54.5t-20.5 -55.5q53 27 107.5 52.5t74.5 31.5l125 39l29 -213l-123 -41q-20 -6 -75.5 -14t-111.5 -14q35 -39 66 -76t41 -53l55 -101
l-207 -133l-55 101q-10 14 -25.5 64t-29.5 97q-35 -49 -68 -98t-49 -65l-88 -101l-160 133l92 101q14 16 60.5 54t93.5 75q-53 6 -106.5 15t-71.5 15z" />
    <glyph glyph-name="plus" unicode="+" 
d="M23 500l49 284h260l49 273h293l-49 -273h266l-49 -284h-267l-51 -281h-293l52 281h-260z" />
    <glyph glyph-name="comma" unicode="," horiz-adv-x="434" 
d="M-84 -203l104 555h312l-51 -282l-142 -273h-223z" />
    <glyph glyph-name="hyphen" unicode="-" horiz-adv-x="733" 
d="M43 463l53 299h596l-55 -299h-594z" />
    <glyph glyph-name="period" unicode="." horiz-adv-x="438" 
d="M-45 0l65 352h312l-62 -352h-315z" />
    <glyph glyph-name="slash" unicode="/" horiz-adv-x="749" 
d="M-96 -123l684 1598h286l-684 -1598h-286z" />
    <glyph glyph-name="zero" unicode="0" horiz-adv-x="1034" 
d="M29 262q0 78 7 162t18.5 166t25.5 157.5t31 137.5q41 162 87 258t109.5 148t151.5 68.5t213 16.5q188 0 274 -70.5t86 -215.5q0 -78 -7 -162t-18.5 -166t-26.5 -158t-30 -137q-41 -162 -87 -258t-109.5 -148.5t-151.5 -69t-213 -16.5q-188 0 -274 71t-86 216zM383 301
q16 -4 45 -4q33 0 57.5 9t44 38t35 80t33.5 137q8 43 20.5 99.5t23.5 122t20.5 134t13.5 136.5q-16 4 -43 4q-35 0 -58.5 -9.5t-43 -38t-35 -80.5t-33.5 -138q-10 -43 -21.5 -99.5t-22.5 -121t-21.5 -133t-14.5 -136.5z" />
    <glyph glyph-name="one" unicode="1" horiz-adv-x="749" 
d="M121 920v329l493 103h170l-247 -1352h-371l172 963z" />
    <glyph glyph-name="two" unicode="2" 
d="M-35 0q0 76 6 160t27.5 166t62.5 156.5t109 131.5l309 258q35 29 45.5 54.5t10.5 54.5q0 25 -7 43q-113 -2 -202.5 -15.5t-161.5 -33.5v346q39 12 88 22.5t102.5 17.5t109.5 11t109 4q174 0 260.5 -77.5t86.5 -227.5q0 -41 -6.5 -96t-25 -113.5t-54 -117t-95.5 -105.5
l-295 -233q-31 -25 -30 -72h395l-88 -334h-756z" />
    <glyph glyph-name="three" unicode="3" horiz-adv-x="886" 
d="M-41 12l64 336q35 -10 95 -17t132 -7q45 0 80 4t58.5 19t35.5 46t12 86v19.5t-2 19.5h-31q-59 0 -123.5 -3t-142.5 -9l56 313q61 4 99 6t85 4q49 2 79.5 14.5t47 32t21.5 41t5 41.5q0 31 -6 62q-10 2 -18 2h-19q-86 0 -175 -11.5t-154 -27.5v338q72 18 183.5 34.5
t238.5 16.5q92 0 155.5 -23.5t102.5 -60.5t56 -83t17 -93q0 -20 -3 -66.5t-15 -93.5q-20 -86 -66.5 -142t-93.5 -93v-4q45 -31 60.5 -76t15.5 -98q0 -45 -6 -88t-19 -97q-27 -117 -76 -189.5t-118.5 -113.5t-157.5 -56t-190 -15q-35 0 -75 2t-78 6t-71.5 10t-58.5 14z" />
    <glyph glyph-name="four" unicode="4" horiz-adv-x="1040" 
d="M6 225v326l428 801h590l-147 -801h127l-89 -326h-98l-41 -225h-358l41 225h-453zM358 526h166l121 547h-22z" />
    <glyph glyph-name="five" unicode="5" horiz-adv-x="913" 
d="M-35 20l64 336q35 -10 103.5 -20t139.5 -10q88 0 137.5 39.5t49.5 148.5v17.5t-2 17.5l-312 -25l-61 135l127 693h788l-86 -330h-409l-33 -166q39 6 69.5 9t69.5 3q125 0 178.5 -67.5t53.5 -186.5q0 -25 -3 -59.5t-8.5 -69t-11.5 -69.5t-12 -60q-27 -117 -77 -189.5
t-118.5 -113.5t-156.5 -56t-191 -15q-35 0 -77 3t-84 8t-77.5 12t-60.5 15z" />
    <glyph glyph-name="six" unicode="6" horiz-adv-x="958" 
d="M20 272q0 63 10.5 149.5t25 174.5t29.5 166t26 125q31 135 72.5 228t105 149.5t158 81t229.5 24.5q72 0 154.5 -7t136.5 -24l-62 -325q-35 10 -98 17t-129 7q-61 0 -99 -8t-60.5 -28.5t-34 -55.5t-19.5 -90q51 16 110.5 29.5t108.5 13.5q111 0 168 -55.5t57 -173.5
q0 -43 -5 -103.5t-11 -99.5q-20 -145 -59 -240.5t-102.5 -151t-153 -78t-207.5 -22.5q-188 0 -269.5 77t-81.5 220zM379 279q20 -6 49 -7q25 0 44.5 3.5t34.5 22.5t27.5 61t22.5 118q4 29 8 71.5t2 65.5q-39 0 -75.5 -5t-71.5 -13q-20 -94 -30.5 -182t-10.5 -135z" />
    <glyph glyph-name="seven" unicode="7" horiz-adv-x="856" 
d="M8 0q8 55 17.5 105.5t23.5 107.5t34.5 125t51.5 158q23 61 64 129.5t91 137t105.5 135.5t106.5 124h-393l57 330h797l-60 -330q-57 -61 -122.5 -145t-124 -164t-99.5 -144.5t-47 -89.5q-25 -88 -41 -149.5t-28.5 -113.5t-21.5 -102.5t-22 -113.5h-389z" />
    <glyph glyph-name="eight" unicode="8" horiz-adv-x="985" 
d="M4 276q0 70 14 142q18 102 73.5 167.5t146.5 110.5v4q-47 41 -76 100.5t-29 129.5q0 27 2 56.5t6 51.5q27 172 140.5 255t351.5 83q186 0 279.5 -78.5t93.5 -207.5q0 -18 -1 -47t-12 -76q-16 -98 -72.5 -163t-134.5 -106v-4q49 -37 79 -94t30 -119q0 -35 -2 -59.5
t-8 -65.5q-18 -115 -56 -188.5t-99.5 -116.5t-148.5 -59.5t-204 -16.5q-197 0 -285 80t-88 221zM356 270q25 -6 56 -6q35 0 61.5 10.5t38.5 40.5q18 47 29.5 117t9.5 127l-109 -4q-29 0 -45 -35t-25.5 -81t-12.5 -93t-3 -76zM461 817l104 4q25 0 41.5 33t25.5 77t12 89t3 74
q-8 2 -23.5 4t-31.5 2q-27 0 -54.5 -8.5t-39.5 -40.5q-16 -47 -27.5 -114t-9.5 -120z" />
    <glyph glyph-name="nine" unicode="9" horiz-adv-x="964" 
d="M10 12l62 332q16 -4 43.5 -9t59.5 -8t67.5 -5.5t68.5 -2.5q61 0 100.5 7.5t63 27t34.5 53t17 89.5q-49 -16 -110.5 -29.5t-110.5 -13.5q-111 0 -168 55t-57 174q0 43 5 103.5t11 99.5q20 145 59.5 240.5t103 150.5t152.5 77.5t207 22.5q188 0 269.5 -76.5t81.5 -220.5
q0 -63 -10.5 -149t-24.5 -174t-29.5 -167t-25.5 -124q-31 -135 -73 -228.5t-105.5 -149.5t-157.5 -80.5t-230 -24.5q-35 0 -76.5 2t-83.5 6t-79 9t-64 13zM422 737q37 0 75 4t72 15q20 92 30.5 180t10.5 137q-23 6 -49 6q-25 0 -44 -4t-34.5 -22.5t-28 -60.5t-22.5 -118
q-4 -29 -8 -71.5t-2 -65.5z" />
    <glyph glyph-name="colon" unicode=":" horiz-adv-x="464" 
d="M-35 0l66 352h311l-61 -352h-316zM100 737l66 353h311l-61 -353h-316z" />
    <glyph glyph-name="semicolon" unicode=";" horiz-adv-x="471" 
d="M-70 -203l105 555h311l-51 -282l-141 -273h-224zM104 737l66 353h311l-61 -353h-316z" />
    <glyph glyph-name="less" unicode="&#x3c;" 
d="M25 502l45 260l829 285l-53 -302l-397 -114l354 -129l-49 -281z" />
    <glyph glyph-name="equal" unicode="=" 
d="M10 315l45 265h779l-46 -265h-778zM78 698l45 265h778l-45 -265h-778z" />
    <glyph glyph-name="greater" unicode="&#x3e;" 
d="M10 221l53 301l398 115l-355 129l50 281l729 -281l-45 -260z" />
    <glyph glyph-name="question" unicode="?" horiz-adv-x="829" 
d="M96 0l62 322h346l-58 -322h-350zM158 1006v319q78 25 163 38t193 13q174 0 264 -71.5t90 -210.5q0 -98 -22.5 -165t-63.5 -118q-41 -53 -96 -98t-135 -115l-35 -162h-330l58 285l166 129q78 59 77 123q0 43 -6 67q-18 2 -34.5 2h-32.5q-80 0 -138.5 -10t-117.5 -26z" />
    <glyph glyph-name="at" unicode="@" horiz-adv-x="1302" 
d="M27 387v41t2 41q18 205 79.5 353.5t156.5 245.5t219 144.5t266 47.5q162 0 264 -35t159.5 -97.5t78 -149.5t20.5 -192q0 -86 -26.5 -199.5t-84 -217t-148.5 -174t-218 -70.5q-49 0 -105 12v150h-4q-43 -63 -97 -112.5t-112 -49.5q-33 0 -57.5 20.5t-42 52t-25.5 72.5
t-8 84q0 100 13.5 212t56.5 204t125 152.5t219 60.5q82 0 135 -14.5t100 -32.5l-121 -657h5q47 16 80.5 55t57 90t39 111.5t23.5 118t11.5 108.5t3.5 86q0 47 -8.5 90t-34.5 98q-53 23 -124 39.5t-157 16.5q-123 0 -217 -32t-161.5 -104.5t-108.5 -191.5t-58 -293
q-2 -23 -3 -46.5t-1 -43.5q2 -133 31 -210t59 -126q41 -10 93.5 -13t105.5 -3q33 0 77 3t89 9t83 13t58 14l-29 -177q-31 -8 -73.5 -15t-88.5 -11t-90.5 -7t-78.5 -3q-217 0 -322.5 134t-105.5 398zM557 344q35 10 65.5 31.5t57.5 46.5l70 379q-20 4 -37 4q-16 0 -35 -6
t-36 -27.5t-33.5 -63.5t-28.5 -112q-18 -96 -20.5 -151.5t-2.5 -100.5z" />
    <glyph glyph-name="A" unicode="A" horiz-adv-x="1032" 
d="M-117 0l541 1346l469 18l41 -1358l-373 -24l4 229h-241l-68 -211h-373zM418 500h155l15 512h-4z" />
    <glyph glyph-name="B" unicode="B" horiz-adv-x="1001" 
d="M-35 4l246 1348q63 4 184 10t264 6q106 0 176 -17.5t111 -50t58.5 -78.5t17.5 -104q0 -25 -2 -50.5t-12 -72.5q-6 -37 -20.5 -73.5t-39 -71.5t-60.5 -64.5t-85 -48.5v-4q123 -59 123 -201q0 -35 -2 -65.5t-13 -83.5q-14 -86 -44.5 -157.5t-89 -123t-150.5 -80t-230 -28.5
q-154 0 -262 3t-170 7zM377 301q16 -2 24.5 -2h34.5q33 0 57.5 5t42 30.5t27.5 78t17 148.5q-12 2 -32 3t-32 1q-23 0 -44 -1t-44 -5zM473 821h49q33 0 57.5 4t41 29t29 77t20.5 146q-12 2 -30.5 3t-31.5 1q-23 0 -50.5 -2t-37.5 -4z" />
    <glyph glyph-name="C" unicode="C" horiz-adv-x="831" 
d="M29 346q0 92 13 193.5t36 212.5q33 164 81 281.5t119.5 194.5t171 112.5t238.5 35.5q59 0 128 -14t110 -31l-78 -319q-29 8 -87.5 18t-125.5 10q-37 0 -62.5 -12t-46 -45t-38 -89t-37.5 -144q-23 -92 -37.5 -208t-20.5 -227q199 0 346 43l-63 -335q-20 -8 -53 -16.5
t-72 -15.5t-80 -11.5t-78 -4.5q-115 0 -186.5 27t-111.5 76t-53 117.5t-13 150.5z" />
    <glyph glyph-name="D" unicode="D" horiz-adv-x="1048" 
d="M-35 4l246 1348q55 4 164.5 10t263.5 6q113 0 189.5 -18.5t124.5 -60.5t69.5 -110.5t21.5 -168.5q0 -92 -13 -197.5t-36 -218.5q-33 -164 -75.5 -277.5t-110.5 -185.5t-164 -104.5t-233 -32.5q-154 0 -269.5 3t-177.5 7zM387 305h57q37 0 62.5 13.5t44 47t35 91
t35.5 145.5q8 45 18 100.5t18.5 115t14.5 119.5t10 116q-35 6 -64 6q-35 0 -56 -2t-32 -4z" />
    <glyph glyph-name="E" unicode="E" horiz-adv-x="835" 
d="M-37 0l248 1352h700l-86 -330h-303l-33 -184h302l-58 -310h-301l-35 -194h346l-88 -334h-692z" />
    <glyph glyph-name="F" unicode="F" horiz-adv-x="794" 
d="M-37 0l248 1352h674l-86 -330h-277l-49 -272h275l-60 -322h-274l-78 -428h-373z" />
    <glyph glyph-name="G" unicode="G" horiz-adv-x="1001" 
d="M23 344q0 92 16 194.5t39 213.5q33 164 81 281.5t119.5 194.5t172 112.5t237.5 35.5q55 0 109.5 -4t102.5 -11t86 -16.5t58 -17.5l-81 -326q-53 14 -122 26.5t-159 12.5q-55 0 -90 -12t-59.5 -45t-43 -89t-38.5 -144q-10 -47 -21.5 -107.5t-21 -124t-14.5 -122t-5 -99.5
q14 -2 24.5 -2h26.5q70 0 135 12l37 201h-106l51 285h420l-137 -746q-33 -16 -85.5 -29.5t-112.5 -22.5t-125.5 -14.5t-125.5 -5.5q-115 0 -186.5 27t-112.5 76t-55 116.5t-14 149.5z" />
    <glyph glyph-name="H" unicode="H" horiz-adv-x="1073" 
d="M-37 0l248 1352h373l-92 -498h178l92 498h373l-248 -1352h-373l94 516h-178l-94 -516h-373z" />
    <glyph glyph-name="I" unicode="I" horiz-adv-x="522" 
d="M-37 0l248 1352h373l-248 -1352h-373z" />
    <glyph glyph-name="J" unicode="J" horiz-adv-x="561" 
d="M-160 -74q51 51 102.5 110.5t88.5 115.5l221 1200h373l-209 -1125q-20 -104 -46 -185t-81 -140l-41 -41t-52.5 -49.5t-54 -47t-45.5 -34.5z" />
    <glyph glyph-name="K" unicode="K" horiz-adv-x="1085" 
d="M-37 0l248 1352h373l-95 -512l37 2l310 510h391l-430 -682l188 -664l-383 -24l-137 546l-33 -2l-96 -526h-373z" />
    <glyph glyph-name="L" unicode="L" horiz-adv-x="743" 
d="M-37 0l248 1352h373l-187 -1018h275l-88 -334h-621z" />
    <glyph glyph-name="M" unicode="M" horiz-adv-x="1492" 
d="M-70 0l344 1352h451l18 -729h5l256 729h483l-137 -1342l-361 -22l86 717h-4l-291 -695l-276 -22l-47 719h-4l-164 -707h-359z" />
    <glyph glyph-name="N" unicode="N" horiz-adv-x="1132" 
d="M-37 0l248 1346l367 24l139 -692h4l125 674h350l-248 -1346l-370 -24l-142 667h-6l-119 -649h-348z" />
    <glyph glyph-name="O" unicode="O" horiz-adv-x="1046" 
d="M23 346q0 92 17 193.5t40 212.5q33 164 79 281.5t116.5 194.5t169 112.5t235.5 35.5q106 0 177 -26.5t114 -75.5t60.5 -118t17.5 -150q0 -92 -16.5 -193.5t-39.5 -212.5q-33 -164 -80 -281.5t-116.5 -194.5t-169 -113t-236.5 -36q-106 0 -177 27t-114 76t-60 117.5
t-17 150.5zM381 299q16 -2 28.5 -2h26.5q37 0 62.5 14.5t45 50t37 94t37.5 146.5q23 96 43.5 218t26.5 235q-20 2 -29.5 2h-23.5q-37 0 -62.5 -15.5t-45 -50.5t-37 -94t-37.5 -147q-23 -96 -44.5 -217t-27.5 -234z" />
    <glyph glyph-name="P" unicode="P" horiz-adv-x="1019" 
d="M-37 0l248 1352q43 4 108.5 7t135 5t136 3t111.5 1q188 0 266.5 -78t78.5 -221q0 -23 -1.5 -43t-3.5 -41.5t-5 -47.5t-7 -60q-16 -111 -45 -204t-80 -163t-130 -110t-195 -46l-183 -8l-61 -346h-373zM455 655l63 4q29 2 49.5 8.5t37 23t28.5 49t22 85.5q14 72 19.5 121
t7.5 109q-14 2 -33 3t-37 1q-20 0 -48.5 -3t-37.5 -5z" />
    <glyph glyph-name="Q" unicode="Q" horiz-adv-x="1046" 
d="M23 346q0 92 17 193.5t40 212.5q33 164 79 281.5t116.5 194.5t169 112.5t235.5 35.5q106 0 177 -26.5t114 -75.5t60.5 -118t17.5 -150q0 -92 -16.5 -193.5t-39.5 -212.5q-35 -164 -80 -280.5t-114 -192.5l162 -201l-267 -182l-200 238q-49 -6 -103 -7q-106 0 -177 27
t-114 76t-60 117.5t-17 150.5zM381 299q14 -2 27.5 -2h27.5q37 0 62.5 14.5t45 50t37 94t37.5 146.5q23 96 43.5 218t26.5 235q-18 2 -28.5 2h-24.5q-37 0 -62.5 -15.5t-45 -50.5t-37 -94t-37.5 -147q-23 -96 -44.5 -217t-27.5 -234z" />
    <glyph glyph-name="R" unicode="R" horiz-adv-x="1036" 
d="M-37 0l248 1352q41 4 103.5 7t129 5t130 3t108.5 1q100 0 170 -19.5t113 -57.5t62.5 -94t19.5 -128v-39t-2.5 -33.5t-4.5 -40t-8 -57.5q-23 -154 -73 -250t-150 -143l109 -500l-383 -24l-72 454l-49 -2l-78 -434h-373zM463 700l63 2q29 0 49.5 4.5t36 16.5t25.5 36.5
t18 65.5q14 70 19.5 122t7.5 108q-14 2 -33 3t-37 1q-20 0 -48.5 -3t-37.5 -5z" />
    <glyph glyph-name="S" unicode="S" horiz-adv-x="786" 
d="M-37 25l27 340q35 -14 106.5 -31t163.5 -17h21.5t21.5 2q4 14 8 32t4 36q0 37 -14 68.5t-35 76.5l-69 154q-31 66 -49.5 135.5t-18.5 132.5q0 106 32 185.5t90 131.5t140 78.5t180 26.5q117 0 192 -16.5t109 -30.5l-77 -321q-47 16 -90 24t-97 8q-102 0 -102 -79
q0 -35 10 -66t37 -90l65 -156q25 -59 48.5 -127.5t23.5 -142.5q0 -106 -30.5 -182t-84 -125t-127 -73t-161.5 -24q-129 0 -209 17.5t-115 32.5z" />
    <glyph glyph-name="T" unicode="T" horiz-adv-x="892" 
d="M109 1022l59 330h833l-86 -330h-204l-189 -1022h-372l188 1022h-229z" />
    <glyph glyph-name="U" unicode="U" horiz-adv-x="1060" 
d="M33 334q0 53 8 118.5t27 168.5l133 731h372l-133 -717q-20 -111 -31.5 -182.5t-11.5 -112.5v-31q25 -12 58 -12q37 0 60.5 11t39.5 38t27.5 71t23.5 111l152 824h372l-155 -834q-31 -162 -72 -266.5t-104.5 -165.5t-154.5 -86t-222 -25q-193 0 -291 87.5t-98 271.5z" />
    <glyph glyph-name="V" unicode="V" horiz-adv-x="1052" 
d="M123 1339l381 31l-41 -1010h4l332 992h387l-510 -1352h-518z" />
    <glyph glyph-name="W" unicode="W" horiz-adv-x="1601" 
d="M121 1346l371 24l-7 -813h4l263 789l346 18l-29 -813h4l266 801h387l-487 -1352h-444l6 672h-4l-213 -672h-420z" />
    <glyph glyph-name="X" unicode="X" horiz-adv-x="1060" 
d="M-115 0l371 698l-100 648l393 24l14 -481h4l197 463h426l-383 -676l151 -670l-395 -24l-63 499h-4l-195 -481h-416z" />
    <glyph glyph-name="Y" unicode="Y" horiz-adv-x="1028" 
d="M119 1346l393 24l20 -579h5l233 561h410l-527 -910l-80 -442h-370l84 463z" />
    <glyph glyph-name="Z" unicode="Z" horiz-adv-x="888" 
d="M-63 0l61 334l508 688h-363l60 330h758l-62 -330l-496 -688h396l-88 -334h-774z" />
    <glyph glyph-name="bracketleft" unicode="[" horiz-adv-x="593" 
d="M-35 -123l297 1598h457l-43 -232h-199l-211 -1134h201l-43 -232h-459z" />
    <glyph glyph-name="backslash" unicode="\" horiz-adv-x="890" 
d="M174 1475h266l297 -1598h-266z" />
    <glyph glyph-name="bracketright" unicode="]" horiz-adv-x="595" 
d="M-98 -123l43 232h198l211 1134h-200l43 232h458l-297 -1598h-456z" />
    <glyph glyph-name="asciicircum" unicode="^" horiz-adv-x="913" 
d="M43 754l408 598h292l187 -598h-244l-115 420l-272 -420h-256z" />
    <glyph glyph-name="underscore" unicode="_" horiz-adv-x="727" 
d="M-92 -297l53 299h596l-55 -299h-594z" />
    <glyph glyph-name="grave" unicode="`" horiz-adv-x="802" 
d="M322 1272l77 215l435 -176l-62 -160z" />
    <glyph glyph-name="a" unicode="a" horiz-adv-x="937" 
d="M-20 211q0 43 5 90t13 82q33 162 139.5 223.5t280.5 61.5q29 0 53.5 -1t46.5 -3l23 124q-23 2 -45.5 3.5t-44.5 1.5q-72 0 -157 -11.5t-163 -36.5v310q55 18 168 38.5t299 20.5q102 0 164.5 -26.5t96.5 -66.5t45 -86t11 -87q0 -23 -2 -41.5t-4 -28.5l-141 -778h-350
l14 76h-4q-43 -35 -98.5 -64.5t-134.5 -29.5q-115 0 -165 61t-50 168zM315 246q39 0 71 7t60 17l35 193q-29 6 -57 6q-55 0 -80 -50t-29 -173z" />
    <glyph glyph-name="b" unicode="b" horiz-adv-x="1026" 
d="M-39 23l252 1370l379 41l-80 -433h4q45 41 108.5 77t141.5 36q111 0 169 -75.5t58 -250.5q0 -55 -6 -124.5t-16 -128.5q-31 -164 -77 -271.5t-114.5 -172t-166 -91.5t-232.5 -27q-53 0 -110.5 4.5t-114 10.5t-107.5 15t-88 20zM379 268q20 -6 45 -6q20 0 42.5 4
t45.5 28.5t45.5 79t40.5 152.5q16 90 22.5 152.5t8.5 109.5q-88 -2 -162 -34z" />
    <glyph glyph-name="c" unicode="c" horiz-adv-x="776" 
d="M12 336q0 55 8.5 114.5t18.5 118.5q31 164 75 269.5t106.5 167t147.5 85t199 23.5q80 0 148.5 -13.5t105.5 -27.5l-78 -307q-31 10 -74.5 18.5t-97.5 8.5q-18 0 -39.5 -4.5t-43 -26t-42 -68.5t-36.5 -133q-16 -92 -24.5 -154.5t-10.5 -109.5q70 0 148.5 13.5t127.5 27.5
v-311q-41 -14 -127 -33t-194 -19q-113 0 -176.5 30t-95 79t-39 114.5t-7.5 137.5z" />
    <glyph glyph-name="d" unicode="d" horiz-adv-x="1026" 
d="M12 313q0 55 5.5 118t15.5 124q29 158 74 263.5t112.5 168t160.5 89t220 26.5q20 0 42 -1t38 -3l53 295l379 41l-264 -1434h-348l22 125h-4q-23 -23 -51.5 -47.5t-63 -46t-76.5 -35.5t-87 -14q-111 0 -169.5 76.5t-58.5 254.5zM379 313q86 2 162 35l84 461q-23 6 -45 6
q-31 0 -51.5 -6t-41 -27.5t-42 -74t-39.5 -146.5q-16 -88 -21.5 -145.5t-5.5 -102.5z" />
    <glyph glyph-name="e" unicode="e" horiz-adv-x="946" 
d="M10 334q0 55 8.5 115.5t18.5 119.5q31 164 79 269.5t115.5 167t157.5 85t209 23.5q102 0 166.5 -22.5t101.5 -62.5t50.5 -93t13.5 -117q0 -94 -22.5 -198.5t-61.5 -208.5l-463 -29q-2 -12 -2 -24.5v-22.5q0 -18 1 -32.5t3 -27.5q63 0 128 4.5t121 10.5t98 13t61 13v-284
q-37 -14 -150 -36t-285 -22q-113 0 -181 29t-105 78t-49.5 114.5t-12.5 137.5zM412 588l143 12q16 68 27.5 129.5t15.5 99.5q-10 4 -24.5 6.5t-28.5 2.5q-20 0 -39 -5.5t-35 -30t-31.5 -74.5t-27.5 -140z" />
    <glyph glyph-name="f" unicode="f" horiz-adv-x="720" 
d="M10 0l121 655l-59 174l16 123l98 6l25 136q14 80 35.5 143t58.5 106t95.5 67t144.5 24q115 0 193.5 -14.5t113.5 -26.5l-70 -279q-27 4 -67.5 8t-75.5 4h-25.5t-29.5 -2l-27 -141l205 12l-55 -303l-199 -14l-125 -678h-373z" />
    <glyph glyph-name="g" unicode="g" horiz-adv-x="985" 
d="M-86 -119q0 96 56.5 145.5t133.5 75.5v4l-81 70q23 82 52 147.5t54 106.5q-47 31 -65.5 76t-18.5 100q0 33 5 67t11 64q25 111 65 183.5t102.5 115.5t150.5 60.5t207 17.5h25.5t29.5 -2l45 238l383 43l-12 -60l-178 -282q47 -29 75.5 -74t28.5 -115q0 -33 -3 -67.5
t-11 -69.5q-23 -111 -64 -180.5t-105.5 -110.5t-151.5 -56.5t-197 -15.5q-27 0 -49.5 1.5t-45.5 3.5q-8 -23 -17 -51.5t-15 -57.5q74 8 148.5 12t160.5 4q125 0 172 -57t47 -149q0 -104 -46 -179t-124 -123.5t-183.5 -71t-222.5 -22.5q-195 0 -278.5 58.5t-83.5 150.5z
M258 -96q27 -10 94 -10q29 0 58.5 5t54 17t40 32.5t15.5 49.5q0 6 -1 21.5t-3 21.5q-53 0 -109.5 -4t-105.5 -10q-18 -25 -29.5 -54.5t-13.5 -68.5zM416 584q10 -4 23.5 -6.5t27.5 -2.5q25 0 43 4.5t33.5 18.5t27 43t21.5 80q10 53 13 92t3 70q-23 6 -47 6q-25 0 -44 -4
t-34.5 -18.5t-28 -43.5t-22.5 -80t-13 -90t-3 -69z" />
    <glyph glyph-name="h" unicode="h" horiz-adv-x="1054" 
d="M-43 0l256 1393l379 41l-82 -443h4q27 18 61.5 40t76.5 40.5t88 30.5t94 12q63 0 105 -16.5t65.5 -41t33 -56t9.5 -62.5q0 -14 -1.5 -25.5t-3.5 -21.5l-161 -891h-373l143 782q-51 0 -99 -14t-89 -37l-133 -731h-373z" />
    <glyph glyph-name="i" unicode="i" horiz-adv-x="507" 
d="M-43 0l199 1081l376 23l-202 -1104h-373zM164 1176l43 235l393 25l-43 -236z" />
    <glyph glyph-name="j" unicode="j" horiz-adv-x="518" 
d="M-209 -133q59 57 108.5 111.5t86.5 109.5l180 993l377 23l-174 -942q-10 -57 -20.5 -103.5t-24 -85.5t-34 -73.5t-50.5 -67.5q-31 -33 -77 -73t-112 -87zM174 1176l43 235l393 25l-43 -236z" />
    <glyph glyph-name="k" unicode="k" horiz-adv-x="1028" 
d="M-43 0l256 1393l379 41l-135 -742l28 2l244 387l404 23l-347 -547l148 -551l-383 -24l-109 469l-30 -2l-82 -449h-373z" />
    <glyph glyph-name="l" unicode="l" horiz-adv-x="507" 
d="M-43 0l256 1393l379 41l-262 -1434h-373z" />
    <glyph glyph-name="m" unicode="m" horiz-adv-x="1552" 
d="M-43 0l199 1081l352 23l-25 -131h4q20 16 57.5 40.5t83.5 47t99 38t107 15.5q51 0 84.5 -11t55 -29.5t31 -43t13.5 -51.5q25 18 62.5 40.5t82.5 44t94.5 36t96.5 14.5q63 0 101 -16.5t58.5 -41t25.5 -56t5 -62.5q0 -14 -1 -25.5t-3 -21.5l-162 -891h-370l141 782
q-88 -6 -162 -41l-133 -741h-373l142 780q-82 -6 -158 -39l-135 -741h-373z" />
    <glyph glyph-name="n" unicode="n" horiz-adv-x="1054" 
d="M-43 0l199 1081l352 23l-25 -131h4q20 16 57.5 40.5t83.5 47t99 38t107 15.5q63 0 105 -16.5t65.5 -41t33 -56t9.5 -62.5q0 -16 -1.5 -26.5t-3.5 -20.5l-161 -891h-373l143 782q-53 0 -100 -14t-88 -37l-133 -731h-373z" />
    <glyph glyph-name="o" unicode="o" horiz-adv-x="1009" 
d="M10 334q0 55 8.5 115.5t18.5 119.5q31 164 79 269.5t115.5 167t157.5 85t209 23.5q113 0 186.5 -29.5t116.5 -79t60.5 -115t17.5 -136.5q0 -55 -8 -115.5t-19 -120.5q-31 -164 -79 -269.5t-115.5 -165.5t-157.5 -84t-209 -24q-113 0 -186.5 29t-116.5 78t-60.5 114.5
t-17.5 137.5zM373 268q10 -2 19 -3t20 -1q20 0 42.5 4t44 29t43 78t40.5 151q20 104 27 174t7 121q-18 6 -38 6q-25 0 -47.5 -6t-42 -28.5t-41 -77t-39.5 -152.5q-20 -104 -27.5 -174t-7.5 -121z" />
    <glyph glyph-name="p" unicode="p" horiz-adv-x="1026" 
d="M-104 -328l260 1409l374 23l-20 -105h4q45 41 108.5 78t143.5 37q111 0 169 -75.5t58 -250.5q0 -55 -6 -121.5t-16 -125.5q-31 -160 -76 -266.5t-112.5 -170t-165 -90t-232.5 -26.5h-28.5t-30.5 2l-52 -277zM379 281q12 -2 24.5 -3.5t24.5 -1.5q23 0 45.5 5.5t43 28
t42 74.5t39.5 148q18 90 23.5 149.5t7.5 106.5q-88 -2 -164 -34z" />
    <glyph glyph-name="q" unicode="q" horiz-adv-x="1026" 
d="M12 311q0 55 6.5 119t16.5 125q31 158 75 264.5t110.5 171t159.5 91t220 26.5q76 0 134.5 -13.5t103.5 -29.5l213 39l-256 -1391l-379 -41l80 428h-4q-45 -41 -109 -79.5t-143 -38.5q-111 0 -169.5 77.5t-58.5 251.5zM379 313q88 2 162 35l88 465q-23 8 -49 8
q-23 0 -46.5 -6t-46 -31.5t-43 -78t-38.5 -144.5q-16 -88 -21.5 -145.5t-5.5 -102.5z" />
    <glyph glyph-name="r" unicode="r" horiz-adv-x="735" 
d="M-43 0l199 1081l352 23l-37 -195h4q43 53 74 92t57.5 64t54 37t62.5 12t55.5 -4t36.5 -10l-92 -365q-80 -4 -146.5 -19.5t-125.5 -43.5l-121 -672h-373z" />
    <glyph glyph-name="s" unicode="s" horiz-adv-x="743" 
d="M-14 12v330q57 -20 122.5 -31.5t155.5 -13.5q4 12 4 22q0 29 -12 52.5t-35 58.5l-71 113q-37 57 -57.5 114.5t-20.5 122.5q0 164 116.5 249t311.5 85q39 0 81 -5t79.5 -11t68.5 -14.5t47 -14.5l-71 -309q-35 10 -85.5 21.5t-97.5 11.5q-76 0 -76 -50q0 -23 10.5 -44
t32.5 -54l76 -110q35 -53 58.5 -114t23.5 -130q0 -152 -101.5 -234t-293.5 -82q-92 0 -166 13.5t-100 23.5z" />
    <glyph glyph-name="t" unicode="t" horiz-adv-x="686" 
d="M41 172q0 35 6 72l98 522l-61 174l16 123l99 6l71 252l351 33l-50 -262l170 12l-57 -303l-166 -10l-92 -494q37 2 77 9t68 13v-299q-20 -8 -56 -16t-76 -14t-77.5 -10.5t-62.5 -4.5q-86 0 -137 17.5t-78 45.5t-35 62.5t-8 71.5z" />
    <glyph glyph-name="u" unicode="u" horiz-adv-x="1042" 
d="M-8 186q0 12 1 24.5t3 22.5l156 848l374 23l-145 -785q53 0 97 13.5t83 36.5l131 712l375 23l-201 -1104h-352l25 127h-4q-20 -16 -55.5 -42t-79.5 -48.5t-95 -38.5t-104 -16q-66 0 -106 19t-63.5 50t-31.5 67t-8 68z" />
    <glyph glyph-name="v" unicode="v" horiz-adv-x="995" 
d="M72 1081l381 23l-19 -801h4l258 787h387l-428 -1090h-518z" />
    <glyph glyph-name="w" unicode="w" horiz-adv-x="1468" 
d="M70 1081l381 23l-39 -744h4l231 719l299 19l8 -738h4l203 730h391l-403 -1090h-416l-20 502h-4l-162 -502h-416z" />
    <glyph glyph-name="x" unicode="x" horiz-adv-x="1036" 
d="M-102 0l288 561l-90 520l389 23l25 -426h4l197 412h415l-319 -551l123 -531l-383 -22l-72 458h-4l-158 -444h-415z" />
    <glyph glyph-name="y" unicode="y" horiz-adv-x="997" 
d="M25 20q53 -10 111.5 -17t123.5 -7q41 0 62.5 12t31.5 45l23 76l-236 -14l-67 966l381 23v-737h4l241 723h385l-419 -1104q-20 -55 -49 -110.5t-71 -100.5t-101.5 -73t-141.5 -28q-117 0 -185.5 11.5t-92.5 19.5v315z" />
    <glyph glyph-name="z" unicode="z" horiz-adv-x="786" 
d="M-31 0v295l393 498h-274l53 297h682l-53 -297l-377 -498h293l-53 -295h-664z" />
    <glyph glyph-name="braceleft" unicode="{" horiz-adv-x="665" 
d="M2 602l31 182q35 6 76 20.5t77.5 36t63 50.5t33.5 63l36 193q12 63 36 118.5t64 99.5t99.5 76t143.5 50l118 -188q-66 -16 -105.5 -36t-63 -47.5t-36 -63.5t-18.5 -81l-20 -137q-6 -37 -15.5 -70.5t-37 -66.5t-81 -64.5t-145.5 -64.5v-4l205 -136l-43 -235
q-2 -10 -4 -27.5t-2 -31.5q0 -145 133 -244l-174 -148q-104 63 -160.5 154.5t-56.5 196.5q0 33 6 69l37 193z" />
    <glyph glyph-name="bar" unicode="|" horiz-adv-x="458" 
d="M-33 -123l293 1598h258l-293 -1598h-258z" />
    <glyph glyph-name="braceright" unicode="}" horiz-adv-x="663" 
d="M-94 35q66 16 105.5 35.5t63 47t36 63.5t18.5 81l21 137q6 37 15 71t36.5 66.5t81 64.5t145.5 65v4l-205 135l43 235q2 10 4 27.5t2 32.5q0 145 -133 243l174 148q104 -63 160.5 -154.5t56.5 -195.5q0 -33 -6 -70l-37 -192l197 -144l-31 -182q-35 -6 -75.5 -20.5
t-77.5 -36t-63.5 -50t-33.5 -63.5l-36 -193q-12 -63 -36 -118.5t-64 -99.5t-99 -75.5t-143 -50.5z" />
    <glyph glyph-name="asciitilde" unicode="~" 
d="M55 733q25 18 58.5 40t70.5 40t71 29.5t56 11.5q55 0 98.5 -24.5t81 -56.5t72.5 -60.5t76 -36.5l195 88l20 -229q-25 -20 -58.5 -42t-70.5 -40.5t-70.5 -30.5t-56.5 -12q-55 0 -98 26.5t-81 60t-74 63.5t-79 38l-190 -94z" />
    <glyph glyph-name="uni00A0" unicode="&#xa0;" horiz-adv-x="280" 
 />
    <glyph glyph-name="exclamdown" unicode="&#xa1;" horiz-adv-x="557" 
d="M-43 -41l232 957h305l-133 -916zM187 1030l59 322h350l-61 -322h-348z" />
    <glyph glyph-name="cent" unicode="&#xa2;" horiz-adv-x="780" 
d="M2 336q0 55 8 114.5t19 118.5q27 137 61.5 234.5t81.5 160t110.5 96.5t145.5 46l43 233h191l-44 -227q61 -4 112.5 -16.5t80.5 -22.5l-78 -307q-31 10 -75 18.5t-97 8.5q-18 0 -39.5 -4.5t-43 -26t-42 -68.5t-37.5 -133q-16 -92 -24 -154.5t-10 -109.5q70 0 148.5 13.5
t127.5 27.5v-311q-33 -10 -90 -23.5t-131 -21.5l-43 -230h-193l43 230q-80 12 -125 44.5t-67.5 81t-27.5 106.5t-5 122z" />
    <glyph glyph-name="sterling" unicode="&#xa3;" horiz-adv-x="880" 
d="M-23 0v262l207 293h-151l35 182h157l25 228q12 106 38.5 184t74 128t119 74.5t173.5 24.5q106 0 176 -15t115 -34l-74 -317q-47 16 -84.5 23t-74.5 7q-43 0 -70 -17t-31 -58l-28 -228h227l-33 -182h-229l-143 -221h380l-88 -334h-721z" />
    <glyph glyph-name="currency" unicode="&#xa4;" horiz-adv-x="1372" 
d="M113 299l155 152q-63 113 -63 241q0 125 63 242l-155 153l192 193l154 -156q57 29 116.5 45.5t122.5 16.5q66 0 126.5 -16.5t113.5 -45.5l158 158l192 -190l-158 -160q61 -111 62 -240q0 -129 -59 -237l157 -156l-194 -197l-156 158q-115 -63 -242 -63q-123 0 -239 63
l-152 -154zM477 694q0 -45 17.5 -85t48 -70.5t70.5 -48t85 -17.5t85 17.5t71 48t48.5 70.5t17.5 85t-17.5 85t-48.5 70t-71 47t-85 17t-85 -17t-70.5 -47t-48 -70t-17.5 -85z" />
    <glyph glyph-name="yen" unicode="&#xa5;" horiz-adv-x="1120" 
d="M63 291l33 182h230l-19 98h-192l35 185h122l-112 590l393 24l20 -579h5l233 561h410l-347 -596h130l-35 -185h-201l-57 -98h239l-32 -182h-252l-52 -291h-370l53 291h-234z" />
    <glyph glyph-name="brokenbar" unicode="&#xa6;" horiz-adv-x="460" 
d="M-33 -123l117 637h258l-117 -637h-258zM141 834l119 641h258l-117 -641h-260z" />
    <glyph glyph-name="section" unicode="&#xa7;" horiz-adv-x="1048" 
d="M35 537q0 168 68.5 285.5t172.5 181.5v34q0 68 23 127.5t69 103.5t113.5 69.5t159.5 25.5q66 0 122 -8t103 -18.5t88 -24.5v-316q-20 6 -58 15.5t-79 18.5t-80 15.5t-63 6.5q-55 0 -56 -45q0 -31 22 -54.5t52 -52.5l299 -260q4 -25 5 -42t1 -42q0 -86 -19.5 -163
t-52 -139t-74.5 -112.5t-87 -85.5v-12q0 -70 -18.5 -135.5t-61.5 -116.5t-111.5 -81.5t-169.5 -30.5q-125 0 -219 17t-127 28v319q20 -6 57.5 -15.5t84.5 -17.5t101 -14t110 -6h19t22 2q-14 39 -45 75.5t-66 65.5l-287 242q-10 47 -14 83t-4 77zM336 631q0 -10 1 -20.5
t3 -22.5l322 -289q16 31 26 65.5t10 75.5q0 16 -2 27l-321 291q-39 -55 -39 -127z" />
    <glyph glyph-name="dieresis" unicode="&#xa8;" horiz-adv-x="931" 
d="M266 1186l39 209l299 20l-39 -209zM645 1186l39 209l299 20l-39 -209z" />
    <glyph glyph-name="copyright" unicode="&#xa9;" horiz-adv-x="1314" 
d="M53 512q0 201 48.5 361.5t140.5 272t226 171t306 59.5q137 0 234.5 -35.5t160 -105.5t91 -169t28.5 -224q0 -201 -47 -362t-139 -272.5t-228.5 -172t-316.5 -60.5q-139 0 -235.5 38t-156 109t-86 169t-26.5 221zM229 537q0 -135 26 -215t56 -138q45 -20 101.5 -33.5
t132.5 -13.5q156 0 264.5 42t177 126t99 210t30.5 296q0 127 -23.5 206t-52.5 134q-43 25 -105.5 46.5t-150.5 21.5q-154 0 -259 -42t-171.5 -126t-95.5 -213t-29 -301zM371 471q0 113 30 252q39 203 123 295t254 92q37 0 80 -9t68 -20l-47 -198q-23 6 -58 12t-76 6
q-23 0 -39 -8t-28 -27.5t-22.5 -54.5t-24.5 -90q-12 -57 -21.5 -130t-13.5 -140q63 0 115.5 7t99.5 19l-39 -207q-27 -10 -78 -19t-98 -9q-72 0 -116 16t-68.5 47t-32.5 73t-8 93z" />
    <glyph glyph-name="ordfeminine" unicode="&#xaa;" horiz-adv-x="733" 
d="M70 700q0 33 4 68t10 61q25 121 104.5 167t210.5 46h40t36 -2l17 93q-25 2 -38.5 2h-29.5q-53 0 -117.5 -8.5t-124.5 -26.5v233q25 8 54.5 15.5t71.5 13.5t97.5 10t129.5 4q78 0 125 -19.5t72.5 -49t33.5 -64t8 -65.5q0 -27 -10 -78l-102 -559h-263l11 57h-4
q-35 -27 -78 -47.5t-97 -20.5q-86 0 -123.5 46.5t-37.5 123.5zM322 725q29 0 53 5t45 13l26 146q-16 4 -43 4q-41 0 -59 -38t-22 -130z" />
    <glyph glyph-name="guillemotleft" unicode="&#xab;" horiz-adv-x="1124" 
d="M29 582l274 479l354 22l-301 -501l158 -459l-326 -23zM525 582l274 479l354 22l-301 -501l158 -459l-326 -23z" />
    <glyph glyph-name="logicalnot" unicode="&#xac;" 
d="M39 545l51 282h778l-90 -503h-293l39 221h-485z" />
    <glyph glyph-name="uni00AD" unicode="&#xad;" horiz-adv-x="733" 
d="M43 463l53 299h596l-55 -299h-594z" />
    <glyph glyph-name="registered" unicode="&#xae;" horiz-adv-x="937" 
d="M115 852q0 123 33.5 220t96 165t150.5 103.5t197 35.5q174 0 263 -89t89 -247q0 -123 -33.5 -220t-96 -164.5t-151.5 -103.5t-198 -36q-178 0 -264 88t-86 248zM244 872q0 -78 15 -122.5t32 -77.5q33 -14 78 -23.5t94 -9.5q180 0 265 93t85 288q0 74 -14.5 120t-32.5 79
q-35 16 -79 26t-93 10q-178 0 -264 -92t-86 -291zM346 723l82 446q29 2 77 3.5t79 1.5q66 0 94.5 -26t28.5 -73q0 -23 -7 -55q-10 -55 -25.5 -85t-49.5 -46l34 -162l-124 -8l-23 147h-16l-27 -143h-123zM510 948l25 2q23 2 31.5 8.5t15.5 34.5q6 27 8 45.5t2 38.5
q-8 2 -14.5 2h-12.5q-18 0 -30 -4z" />
    <glyph glyph-name="macron" unicode="&#xaf;" horiz-adv-x="847" 
d="M285 1188l39 211l567 16l-39 -211z" />
    <glyph glyph-name="degree" unicode="&#xb0;" horiz-adv-x="837" 
d="M100 997q0 80 30 148.5t82 120t123 81t152 29.5q84 0 155 -29.5t123 -81t80.5 -120t28.5 -148.5q0 -78 -30.5 -146.5t-82.5 -119.5t-123 -80.5t-151 -29.5q-84 0 -154.5 29.5t-122.5 80.5t-81 119.5t-29 146.5zM332 1004q0 -63 12 -93t25 -49q18 -10 47.5 -14t56.5 -4
q78 0 124 38t46 115q0 61 -12.5 94t-22.5 50q-18 10 -50 15t-60 5q-78 0 -122 -40t-44 -117z" />
    <glyph glyph-name="plusminus" unicode="&#xb1;" 
d="M-23 131l50 285h778l-49 -285h-779zM80 719l51 285h240l37 204h292l-36 -204h245l-51 -285h-246l-37 -213h-292l36 213h-239z" />
    <glyph glyph-name="uni00B2" unicode="&#xb2;" horiz-adv-x="632" 
d="M27 442q0 51 4 107.5t19.5 112t42 105.5t73.5 89l207 174q23 18 30 36t7 38q0 12 -4 29q-74 0 -135.5 -9.5t-108.5 -23.5v233q53 16 128 26.5t146 10.5q117 0 179.5 -52t62.5 -153q0 -29 -4 -66.5t-16.5 -77.5t-37 -79t-63.5 -70l-199 -157q-20 -14 -20 -47h262l-53 -226
h-520z" />
    <glyph glyph-name="uni00B3" unicode="&#xb3;" horiz-adv-x="622" 
d="M25 455l41 225q25 -6 64.5 -11t88.5 -5q59 0 92 16t33 90q0 16 -2 25h-18q-41 0 -84 -2t-97 -7l37 211q33 4 71 6.5t54 2.5q68 2 85.5 29.5t17.5 56.5q0 10 -1 20t-4 21q-6 2 -18 2h-18q-47 0 -106.5 -8.5t-102.5 -18.5v227q47 12 121.5 23.5t160.5 11.5
q63 0 107.5 -15.5t72 -40t40 -56t12.5 -64.5q0 -12 -2 -44t-11 -63q-16 -57 -46.5 -96t-65.5 -63q31 -23 44 -53.5t13 -65.5q0 -29 -4 -59.5t-12 -65.5q-16 -78 -51 -127t-83 -76.5t-109.5 -38t-131.5 -10.5q-47 0 -102.5 6t-85.5 17z" />
    <glyph glyph-name="acute" unicode="&#xb4;" horiz-adv-x="800" 
d="M295 1311l487 176l52 -215l-498 -121z" />
    <glyph glyph-name="mu" unicode="&#xb5;" horiz-adv-x="1181" 
d="M-66 -328l261 1409l374 23l-145 -785q51 0 95 13.5t83 34.5l131 714l377 23l-149 -807q33 2 66.5 8t57.5 12v-299q-20 -8 -53 -15t-68.5 -13t-70.5 -10.5t-59 -4.5q-76 0 -122 13.5t-71 36t-34 52t-11 60.5h-4q-25 -20 -85.5 -60t-139.5 -69l-54 -295z" />
    <glyph glyph-name="paragraph" unicode="&#xb6;" horiz-adv-x="1300" 
d="M49 569q0 57 8.5 116.5t18.5 121.5q31 162 78 267.5t114.5 167t158.5 86t210 24.5h285l-308 -1659h-192l100 545q-66 -14 -180 -15q-78 0 -133 28t-90 75t-52.5 109.5t-17.5 133.5zM733 -307l305 1659h361l-33 -178h-168l-272 -1481h-193z" />
    <glyph glyph-name="periodcentered" unicode="&#xb7;" horiz-adv-x="454" 
d="M49 498l65 352h312l-62 -352h-315z" />
    <glyph glyph-name="cedilla" unicode="&#xb8;" horiz-adv-x="743" 
d="M150 -106l124 124q31 -12 63 -30.5t59.5 -44t45 -59.5t17.5 -79q0 -51 -21.5 -82.5t-59.5 -50t-89 -24.5t-109 -6l-24 116q66 4 88 11.5t22 29.5q0 27 -31.5 40.5t-84.5 23.5v31z" />
    <glyph glyph-name="uni00B9" unicode="&#xb9;" horiz-adv-x="544" 
d="M127 1061v223l354 68h115l-168 -910h-258l117 648z" />
    <glyph glyph-name="ordmasculine" unicode="&#xba;" horiz-adv-x="784" 
d="M90 795q0 41 5.5 85t13.5 89q25 123 60.5 201.5t85.5 124.5t118.5 63.5t156.5 17.5q84 0 139.5 -22.5t87 -59.5t45 -86t13.5 -104q0 -41 -5 -85t-13 -89q-25 -123 -61 -202t-86 -125t-118.5 -63.5t-156.5 -17.5q-84 0 -139.5 22.5t-87 59.5t-45 86t-13.5 105zM362 741
q12 -4 35 -4q16 0 30.5 5.5t29 21.5t31 57t30.5 115q16 80 20.5 131t4.5 90q-12 4 -29 4q-18 0 -33.5 -4t-32 -21.5t-32 -58.5t-29.5 -114q-16 -80 -20.5 -131.5t-4.5 -90.5z" />
    <glyph glyph-name="guillemotright" unicode="&#xbb;" horiz-adv-x="1122" 
d="M-39 80l303 502l-158 458l324 23l160 -481l-275 -480zM457 80l303 502l-158 458l324 23l160 -481l-275 -480z" />
    <glyph glyph-name="onequarter" unicode="&#xbc;" horiz-adv-x="1714" 
d="M150 1061v223l354 68h115l-168 -910h-258l117 648zM229 0l904 1352h253l-903 -1352h-254zM937 154v219l310 539h405l-100 -539h80l-53 -219h-68l-27 -152h-243l26 152h-330zM1185 357h127l80 368h-14z" />
    <glyph glyph-name="onehalf" unicode="&#xbd;" horiz-adv-x="1705" 
d="M150 1061v223l354 68h115l-168 -910h-258l117 648zM229 0l904 1352h253l-903 -1352h-254zM1016 2q0 51 4 107.5t19.5 112t42 105.5t73.5 89l207 174q23 18 30 36t7 38q0 12 -4 29q-74 0 -135.5 -9.5t-108.5 -23.5v233q53 16 128 26.5t146 10.5q117 0 179.5 -52t62.5 -153
q0 -29 -4 -66.5t-16.5 -77.5t-37 -79t-63.5 -70l-199 -157q-20 -14 -20 -47h262l-53 -226h-520z" />
    <glyph glyph-name="threequarters" unicode="&#xbe;" horiz-adv-x="1783" 
d="M35 455l41 225q25 -6 64.5 -11t88.5 -5q59 0 92 16t33 90q0 16 -2 25h-18q-41 0 -84 -2t-97 -7l37 211q33 4 71 6.5t54 2.5q68 2 85.5 29.5t17.5 56.5q0 10 -1 20t-4 21q-6 2 -18 2h-18q-47 0 -106.5 -8.5t-102.5 -18.5v227q47 12 121.5 23.5t160.5 11.5
q63 0 107.5 -15.5t72 -40t40 -56t12.5 -64.5q0 -12 -2 -44t-11 -63q-16 -57 -46.5 -96t-65.5 -63q31 -23 44 -53.5t13 -65.5q0 -29 -4 -59.5t-12 -65.5q-16 -78 -51 -127t-83 -76.5t-109.5 -38t-131.5 -10.5q-47 0 -102.5 6t-85.5 17zM305 0l904 1352h253l-903 -1352h-254z
M1013 154v219l310 539h405l-100 -539h80l-53 -219h-68l-27 -152h-243l26 152h-330zM1261 357h127l80 368h-14z" />
    <glyph glyph-name="questiondown" unicode="&#xbf;" horiz-adv-x="827" 
d="M-14 258q0 98 22.5 165t63.5 118q41 53 96 98t135 115l35 162h330l-58 -285l-166 -129q-78 -59 -77 -123q0 -43 6 -67q18 -2 34.5 -2h32.5q80 0 138.5 10t117.5 26v-319q-78 -25 -163 -38t-193 -13q-174 0 -264 71.5t-90 210.5zM350 1030l58 322h350l-62 -322h-346z" />
    <glyph glyph-name="Agrave" unicode="&#xc0;" horiz-adv-x="1032" 
d="M-117 0l541 1346l469 18l41 -1358l-373 -24l4 229h-241l-68 -211h-373zM418 500h155l15 512h-4zM465 1487l53 180l408 -137l-37 -125z" />
    <glyph glyph-name="Aacute" unicode="&#xc1;" horiz-adv-x="1032" 
d="M-117 0l541 1346l469 18l41 -1358l-373 -24l4 229h-241l-68 -211h-373zM418 500h155l15 512h-4zM465 1530l440 137l39 -180l-446 -82z" />
    <glyph glyph-name="Acircumflex" unicode="&#xc2;" horiz-adv-x="1032" 
d="M-117 0l541 1346l469 18l41 -1358l-373 -24l4 229h-241l-68 -211h-373zM404 1511l305 146l258 -146l-45 -108l-238 70l-241 -70zM418 500h155l15 512h-4z" />
    <glyph glyph-name="Atilde" unicode="&#xc3;" horiz-adv-x="1032" 
d="M-117 0l541 1346l469 18l41 -1358l-373 -24l4 229h-241l-68 -211h-373zM401 1577q12 12 35 24.5t49.5 23.5t52 18.5t46.5 7.5q29 0 60.5 -8.5t63 -20.5t62.5 -24.5t57 -18.5l135 41l25 -137q-12 -12 -34.5 -24.5t-49.5 -24t-52.5 -18.5t-45.5 -7q-29 0 -60.5 8
t-63.5 20.5t-62.5 25t-57.5 18.5l-135 -41zM418 500h155l15 512h-4z" />
    <glyph glyph-name="Adieresis" unicode="&#xc4;" horiz-adv-x="1032" 
d="M-117 0l541 1346l469 18l41 -1358l-373 -24l4 229h-241l-68 -211h-373zM340 1419l32 176l293 19l-33 -176zM418 500h155l15 512h-4zM694 1419l33 176l292 19l-32 -176z" />
    <glyph glyph-name="Aring" unicode="&#xc5;" horiz-adv-x="1032" 
d="M-117 0l537 1335q-8 23 -8 54q0 39 19.5 74.5t55 62t87.5 42t118 15.5q115 0 167 -40t52 -111q0 -41 -18 -74l41 -1352l-373 -24l4 229h-241l-68 -211h-373zM418 500h155l15 512h-4zM569 1399q0 -18 4 -35q10 -4 28.5 -6t47.5 -2q47 0 76 14t29 51q0 18 -4 35
q-10 4 -29 6t-47 2q-47 0 -76 -14t-29 -51z" />
    <glyph glyph-name="AE" unicode="&#xc6;" horiz-adv-x="1259" 
d="M-117 0l543 1352h911l-86 -330h-327v-184h293l-58 -310h-235v-194h245l-88 -334h-520l4 211h-241l-68 -211h-373zM418 500h155l15 512h-4z" />
    <glyph glyph-name="Ccedilla" unicode="&#xc7;" horiz-adv-x="831" 
d="M29 346q0 92 13 193.5t36 212.5q33 164 81 281.5t119.5 194.5t171 112.5t238.5 35.5q59 0 128 -14t110 -31l-78 -319q-29 8 -87.5 18t-125.5 10q-37 0 -62.5 -12t-46 -45t-38 -89t-37.5 -144q-23 -92 -37.5 -208t-20.5 -227q199 0 346 43l-63 -335q-35 -16 -101.5 -28.5
t-134.5 -17.5q41 -27 73 -68.5t32 -103.5q0 -51 -21.5 -82.5t-59.5 -50t-89 -24.5t-109 -6l-24 116q66 4 88 11.5t22 29.5q0 27 -31.5 40.5t-84.5 23.5v31l83 86q-92 8 -148 37.5t-88 77.5t-43 111.5t-11 139.5z" />
    <glyph glyph-name="Egrave" unicode="&#xc8;" horiz-adv-x="835" 
d="M-37 0l248 1352h700l-86 -330h-303l-33 -184h302l-58 -310h-301l-35 -194h346l-88 -334h-692zM363 1487l53 180l408 -137l-37 -125z" />
    <glyph glyph-name="Eacute" unicode="&#xc9;" horiz-adv-x="835" 
d="M-37 0l248 1352h700l-86 -330h-303l-33 -184h302l-58 -310h-301l-35 -194h346l-88 -334h-692zM363 1530l440 137l39 -180l-446 -82z" />
    <glyph glyph-name="Ecircumflex" unicode="&#xca;" horiz-adv-x="835" 
d="M-37 0l248 1352h700l-86 -330h-303l-33 -184h302l-58 -310h-301l-35 -194h346l-88 -334h-692zM303 1511l305 146l258 -146l-45 -108l-238 70l-241 -70z" />
    <glyph glyph-name="Edieresis" unicode="&#xcb;" horiz-adv-x="835" 
d="M-37 0l248 1352h700l-86 -330h-303l-33 -184h302l-58 -310h-301l-35 -194h346l-88 -334h-692zM240 1419l32 176l293 19l-33 -176zM594 1419l33 176l292 19l-32 -176z" />
    <glyph glyph-name="Igrave" unicode="&#xcc;" horiz-adv-x="522" 
d="M-37 0l248 1352h373l-248 -1352h-373zM215 1487l53 180l408 -137l-37 -125z" />
    <glyph glyph-name="Iacute" unicode="&#xcd;" horiz-adv-x="522" 
d="M-37 0l248 1352h373l-248 -1352h-373zM215 1530l440 137l39 -180l-446 -82z" />
    <glyph glyph-name="Icircumflex" unicode="&#xce;" horiz-adv-x="522" 
d="M-37 0l248 1352h373l-248 -1352h-373zM154 1511l305 146l258 -146l-45 -108l-238 70l-241 -70z" />
    <glyph glyph-name="Idieresis" unicode="&#xcf;" horiz-adv-x="522" 
d="M-37 0l248 1352h373l-248 -1352h-373zM91 1419l32 176l293 19l-33 -176zM445 1419l33 176l292 19l-32 -176z" />
    <glyph glyph-name="Eth" unicode="&#xd0;" horiz-adv-x="1087" 
d="M-10 4l108 594h-86l35 182h84l105 572q55 4 171.5 10t270.5 6q113 0 189.5 -18.5t124.5 -60.5t69.5 -110.5t21.5 -168.5q0 -92 -13 -197.5t-36 -218.5q-33 -164 -76 -277.5t-110.5 -185.5t-163.5 -104.5t-233 -32.5q-154 0 -277 3t-184 7zM412 307q20 -2 37.5 -2h33.5
q37 0 62.5 13.5t44 47t35 91t34.5 145.5q8 45 18.5 100.5t19 115t14.5 119.5t8 116q-43 6 -76 6q-35 0 -56.5 -2t-31.5 -4l-53 -273h121l-33 -182h-123z" />
    <glyph glyph-name="Ntilde" unicode="&#xd1;" horiz-adv-x="1132" 
d="M-37 0l248 1346l367 24l139 -692h4l125 674h350l-248 -1346l-370 -24l-142 667h-6l-119 -649h-348zM450 1577q12 12 35 24.5t49.5 23.5t52 18.5t46.5 7.5q29 0 60.5 -8.5t63 -20.5t62.5 -24.5t57 -18.5l135 41l25 -137q-12 -12 -34.5 -24.5t-49.5 -24t-52.5 -18.5
t-45.5 -7q-29 0 -60.5 8t-63.5 20.5t-62.5 25t-57.5 18.5l-135 -41z" />
    <glyph glyph-name="Ograve" unicode="&#xd2;" horiz-adv-x="1046" 
d="M23 346q0 92 17 193.5t40 212.5q33 164 79 281.5t116.5 194.5t169 112.5t235.5 35.5q106 0 177 -26.5t114 -75.5t60.5 -118t17.5 -150q0 -92 -16.5 -193.5t-39.5 -212.5q-33 -164 -80 -281.5t-116.5 -194.5t-169 -113t-236.5 -36q-106 0 -177 27t-114 76t-60 117.5
t-17 150.5zM381 299q16 -2 28.5 -2h26.5q37 0 62.5 14.5t45 50t37 94t37.5 146.5q23 96 43.5 218t26.5 235q-20 2 -29.5 2h-23.5q-37 0 -62.5 -15.5t-45 -50.5t-37 -94t-37.5 -147q-23 -96 -44.5 -217t-27.5 -234zM473 1487l53 180l408 -137l-37 -125z" />
    <glyph glyph-name="Oacute" unicode="&#xd3;" horiz-adv-x="1046" 
d="M23 346q0 92 17 193.5t40 212.5q33 164 79 281.5t116.5 194.5t169 112.5t235.5 35.5q106 0 177 -26.5t114 -75.5t60.5 -118t17.5 -150q0 -92 -16.5 -193.5t-39.5 -212.5q-33 -164 -80 -281.5t-116.5 -194.5t-169 -113t-236.5 -36q-106 0 -177 27t-114 76t-60 117.5
t-17 150.5zM381 299q16 -2 28.5 -2h26.5q37 0 62.5 14.5t45 50t37 94t37.5 146.5q23 96 43.5 218t26.5 235q-20 2 -29.5 2h-23.5q-37 0 -62.5 -15.5t-45 -50.5t-37 -94t-37.5 -147q-23 -96 -44.5 -217t-27.5 -234zM473 1530l440 137l39 -180l-446 -82z" />
    <glyph glyph-name="Ocircumflex" unicode="&#xd4;" horiz-adv-x="1046" 
d="M23 346q0 92 17 193.5t40 212.5q33 164 79 281.5t116.5 194.5t169 112.5t235.5 35.5q106 0 177 -26.5t114 -75.5t60.5 -118t17.5 -150q0 -92 -16.5 -193.5t-39.5 -212.5q-33 -164 -80 -281.5t-116.5 -194.5t-169 -113t-236.5 -36q-106 0 -177 27t-114 76t-60 117.5
t-17 150.5zM381 299q16 -2 28.5 -2h26.5q37 0 62.5 14.5t45 50t37 94t37.5 146.5q23 96 43.5 218t26.5 235q-20 2 -29.5 2h-23.5q-37 0 -62.5 -15.5t-45 -50.5t-37 -94t-37.5 -147q-23 -96 -44.5 -217t-27.5 -234zM412 1511l305 146l258 -146l-45 -108l-238 70l-241 -70z
" />
    <glyph glyph-name="Otilde" unicode="&#xd5;" horiz-adv-x="1046" 
d="M23 346q0 92 17 193.5t40 212.5q33 164 79 281.5t116.5 194.5t169 112.5t235.5 35.5q106 0 177 -26.5t114 -75.5t60.5 -118t17.5 -150q0 -92 -16.5 -193.5t-39.5 -212.5q-33 -164 -80 -281.5t-116.5 -194.5t-169 -113t-236.5 -36q-106 0 -177 27t-114 76t-60 117.5
t-17 150.5zM381 299q16 -2 28.5 -2h26.5q37 0 62.5 14.5t45 50t37 94t37.5 146.5q23 96 43.5 218t26.5 235q-20 2 -29.5 2h-23.5q-37 0 -62.5 -15.5t-45 -50.5t-37 -94t-37.5 -147q-23 -96 -44.5 -217t-27.5 -234zM409 1577q12 12 35 24.5t49.5 23.5t52 18.5t46.5 7.5
q29 0 60.5 -8.5t63 -20.5t62.5 -24.5t57 -18.5l135 41l25 -137q-12 -12 -34.5 -24.5t-49.5 -24t-52.5 -18.5t-45.5 -7q-29 0 -60.5 8t-63.5 20.5t-62.5 25t-57.5 18.5l-135 -41z" />
    <glyph glyph-name="Odieresis" unicode="&#xd6;" horiz-adv-x="1046" 
d="M23 346q0 92 17 193.5t40 212.5q33 164 79 281.5t116.5 194.5t169 112.5t235.5 35.5q106 0 177 -26.5t114 -75.5t60.5 -118t17.5 -150q0 -92 -16.5 -193.5t-39.5 -212.5q-33 -164 -80 -281.5t-116.5 -194.5t-169 -113t-236.5 -36q-106 0 -177 27t-114 76t-60 117.5
t-17 150.5zM349 1419l32 176l293 19l-33 -176zM381 299q16 -2 28.5 -2h26.5q37 0 62.5 14.5t45 50t37 94t37.5 146.5q23 96 43.5 218t26.5 235q-20 2 -29.5 2h-23.5q-37 0 -62.5 -15.5t-45 -50.5t-37 -94t-37.5 -147q-23 -96 -44.5 -217t-27.5 -234zM703 1419l33 176l292 19
l-32 -176z" />
    <glyph glyph-name="multiply" unicode="&#xd7;" 
d="M23 430l247 209l-186 223l223 189l187 -222l245 209l154 -188l-248 -209l186 -223l-225 -191l-184 224l-246 -209z" />
    <glyph glyph-name="Oslash" unicode="&#xd8;" horiz-adv-x="1046" 
d="M-133 -164l205 281q-27 47 -38 103t-11 124q0 92 17 194.5t40 213.5q33 164 79 281.5t116.5 194.5t169 113.5t235.5 36.5q98 0 170 -24l113 162h241l-205 -281q27 -47 38.5 -104.5t11.5 -122.5q0 -92 -16.5 -194.5t-39.5 -213.5q-33 -164 -80 -281.5t-116.5 -194.5
t-169 -114t-236.5 -37q-102 0 -172 25l-110 -162h-242zM381 297q14 -2 27.5 -2h27.5q37 0 62.5 15.5t45 50t37 94t37.5 147.5q23 96 43.5 219t26.5 236q-16 2 -27.5 2h-25.5q-37 0 -62.5 -15.5t-45 -51.5t-37 -95t-37.5 -147q-23 -96 -44.5 -218t-27.5 -235z" />
    <glyph glyph-name="Ugrave" unicode="&#xd9;" horiz-adv-x="1060" 
d="M33 334q0 53 8 118.5t27 168.5l133 731h372l-133 -717q-20 -111 -31.5 -182.5t-11.5 -112.5v-31q25 -12 58 -12q37 0 60.5 11t39.5 38t27.5 71t23.5 111l152 824h372l-155 -834q-31 -162 -72 -266.5t-104.5 -165.5t-154.5 -86t-222 -25q-193 0 -291 87.5t-98 271.5z
M473 1487l53 180l408 -137l-37 -125z" />
    <glyph glyph-name="Uacute" unicode="&#xda;" horiz-adv-x="1060" 
d="M33 334q0 53 8 118.5t27 168.5l133 731h372l-133 -717q-20 -111 -31.5 -182.5t-11.5 -112.5v-31q25 -12 58 -12q37 0 60.5 11t39.5 38t27.5 71t23.5 111l152 824h372l-155 -834q-31 -162 -72 -266.5t-104.5 -165.5t-154.5 -86t-222 -25q-193 0 -291 87.5t-98 271.5z
M473 1530l440 137l39 -180l-446 -82z" />
    <glyph glyph-name="Ucircumflex" unicode="&#xdb;" horiz-adv-x="1060" 
d="M33 334q0 53 8 118.5t27 168.5l133 731h372l-133 -717q-20 -111 -31.5 -182.5t-11.5 -112.5v-31q25 -12 58 -12q37 0 60.5 11t39.5 38t27.5 71t23.5 111l152 824h372l-155 -834q-31 -162 -72 -266.5t-104.5 -165.5t-154.5 -86t-222 -25q-193 0 -291 87.5t-98 271.5z
M412 1511l305 146l258 -146l-45 -108l-238 70l-241 -70z" />
    <glyph glyph-name="Udieresis" unicode="&#xdc;" horiz-adv-x="1060" 
d="M33 334q0 53 8 118.5t27 168.5l133 731h372l-133 -717q-20 -111 -31.5 -182.5t-11.5 -112.5v-31q25 -12 58 -12q37 0 60.5 11t39.5 38t27.5 71t23.5 111l152 824h372l-155 -834q-31 -162 -72 -266.5t-104.5 -165.5t-154.5 -86t-222 -25q-193 0 -291 87.5t-98 271.5z
M349 1419l32 176l293 19l-33 -176zM703 1419l33 176l292 19l-32 -176z" />
    <glyph glyph-name="Yacute" unicode="&#xdd;" horiz-adv-x="1028" 
d="M119 1346l393 24l20 -579h5l233 561h410l-527 -910l-80 -442h-370l84 463zM457 1530l440 137l39 -180l-446 -82z" />
    <glyph glyph-name="Thorn" unicode="&#xde;" horiz-adv-x="1030" 
d="M-37 0l248 1352h371l-31 -162q35 2 63.5 2h53.5q94 0 159.5 -21.5t106.5 -61.5t59.5 -97.5t18.5 -128.5q0 -23 -1 -43.5t-3 -42t-5.5 -47t-7.5 -60.5q-16 -111 -44.5 -204t-80 -162.5t-130 -109.5t-195.5 -46l-180 -8l-29 -160h-373zM420 469l63 2q29 0 49.5 6t37 24.5
t28.5 51.5t23 86q14 72 19 121t7 108q-14 2 -32.5 3t-36.5 1q-20 0 -44 -2t-42 -6z" />
    <glyph glyph-name="germandbls" unicode="&#xdf;" horiz-adv-x="1148" 
d="M-41 0l186 1028q16 92 41 166t75 127t137 82t231 29q88 0 176 -13.5t156.5 -43t111.5 -77t43 -116.5q0 -33 -8 -76t-29 -88l-147 -318l106 -225q16 -35 29.5 -79t13.5 -85q0 -160 -86 -248t-256 -88q-94 0 -162.5 8.5t-97.5 18.5v330q57 -23 113.5 -29t124.5 -6
q4 12 4 25q0 16 -6 30.5t-19 36.5l-82 154q-18 35 -29.5 65.5t-11.5 73.5q0 18 16.5 60t41 97.5t52.5 118t50 123.5q-33 10 -61.5 14.5t-63.5 4.5q-49 0 -69.5 -31t-30.5 -88l-176 -981h-373z" />
    <glyph glyph-name="agrave" unicode="&#xe0;" horiz-adv-x="937" 
d="M-20 211q0 43 5 90t13 82q33 162 139.5 223.5t280.5 61.5q29 0 53.5 -1t46.5 -3l23 124q-23 2 -45.5 3.5t-44.5 1.5q-72 0 -157 -11.5t-163 -36.5v310q55 18 168 38.5t299 20.5q102 0 164.5 -26.5t96.5 -66.5t45 -86t11 -87q0 -23 -2 -41.5t-4 -28.5l-141 -778h-350
l14 76h-4q-43 -35 -98.5 -64.5t-134.5 -29.5q-115 0 -165 61t-50 168zM315 246q39 0 71 7t60 17l35 193q-29 6 -57 6q-55 0 -80 -50t-29 -173zM347 1278l77 215l435 -176l-62 -160z" />
    <glyph glyph-name="aacute" unicode="&#xe1;" horiz-adv-x="937" 
d="M-20 211q0 43 5 90t13 82q33 162 139.5 223.5t280.5 61.5q29 0 53.5 -1t46.5 -3l23 124q-23 2 -45.5 3.5t-44.5 1.5q-72 0 -157 -11.5t-163 -36.5v310q55 18 168 38.5t299 20.5q102 0 164.5 -26.5t96.5 -66.5t45 -86t11 -87q0 -23 -2 -41.5t-4 -28.5l-141 -778h-350
l14 76h-4q-43 -35 -98.5 -64.5t-134.5 -29.5q-115 0 -165 61t-50 168zM315 246q39 0 71 7t60 17l35 193q-29 6 -57 6q-55 0 -80 -50t-29 -173zM322 1317l487 176l52 -215l-498 -121z" />
    <glyph glyph-name="acircumflex" unicode="&#xe2;" horiz-adv-x="937" 
d="M-20 211q0 43 5 90t13 82q33 162 139.5 223.5t280.5 61.5q29 0 53.5 -1t46.5 -3l23 124q-23 2 -45.5 3.5t-44.5 1.5q-72 0 -157 -11.5t-163 -36.5v310q55 18 168 38.5t299 20.5q102 0 164.5 -26.5t96.5 -66.5t45 -86t11 -87q0 -23 -2 -41.5t-4 -28.5l-141 -778h-350
l14 76h-4q-43 -35 -98.5 -64.5t-134.5 -29.5q-115 0 -165 61t-50 168zM264 1278l348 184l285 -178l-64 -135l-260 96l-256 -96zM315 246q39 0 71 7t60 17l35 193q-29 6 -57 6q-55 0 -80 -50t-29 -173z" />
    <glyph glyph-name="atilde" unicode="&#xe3;" horiz-adv-x="937" 
d="M-20 211q0 43 5 90t13 82q33 162 139.5 223.5t280.5 61.5q29 0 53.5 -1t46.5 -3l23 124q-23 2 -45.5 3.5t-44.5 1.5q-72 0 -157 -11.5t-163 -36.5v310q55 18 168 38.5t299 20.5q102 0 164.5 -26.5t96.5 -66.5t45 -86t11 -87q0 -23 -2 -41.5t-4 -28.5l-141 -778h-350
l14 76h-4q-43 -35 -98.5 -64.5t-134.5 -29.5q-115 0 -165 61t-50 168zM263 1368q18 14 42.5 30.5t51 30t52.5 22.5t46 9q43 0 79 -16.5t70.5 -35t70.5 -34.5t79 -16l129 57l27 -162q-18 -14 -43 -30.5t-51.5 -29.5t-52 -22.5t-46.5 -9.5q-43 0 -78.5 16.5t-70.5 35t-71 34.5
t-79 16l-129 -57zM315 246q39 0 71 7t60 17l35 193q-29 6 -57 6q-55 0 -80 -50t-29 -173z" />
    <glyph glyph-name="adieresis" unicode="&#xe4;" horiz-adv-x="937" 
d="M-20 211q0 43 5 90t13 82q33 162 139.5 223.5t280.5 61.5q29 0 53.5 -1t46.5 -3l23 124q-23 2 -45.5 3.5t-44.5 1.5q-72 0 -157 -11.5t-163 -36.5v310q55 18 168 38.5t299 20.5q102 0 164.5 -26.5t96.5 -66.5t45 -86t11 -87q0 -23 -2 -41.5t-4 -28.5l-141 -778h-350
l14 76h-4q-43 -35 -98.5 -64.5t-134.5 -29.5q-115 0 -165 61t-50 168zM221 1192l39 209l299 20l-39 -209zM315 246q39 0 71 7t60 17l35 193q-29 6 -57 6q-55 0 -80 -50t-29 -173zM600 1192l39 209l299 20l-39 -209z" />
    <glyph glyph-name="aring" unicode="&#xe5;" horiz-adv-x="937" 
d="M-20 211q0 43 5 90t13 82q33 162 139.5 223.5t280.5 61.5q29 0 53.5 -1t46.5 -3l23 124q-23 2 -45.5 3.5t-44.5 1.5q-72 0 -157 -11.5t-163 -36.5v310q55 18 168 38.5t299 20.5q102 0 164.5 -26.5t96.5 -66.5t45 -86t11 -87q0 -23 -2 -41.5t-4 -28.5l-141 -778h-350
l14 76h-4q-43 -35 -98.5 -64.5t-134.5 -29.5q-115 0 -165 61t-50 168zM315 246q39 0 71 7t60 17l35 193q-29 6 -57 6q-55 0 -80 -50t-29 -173zM325 1339q0 49 20.5 91t60.5 75t95.5 51.5t126.5 18.5q127 0 179.5 -50.5t52.5 -129.5q0 -49 -20.5 -91.5t-60.5 -75t-96 -51
t-126 -18.5q-127 0 -179.5 50t-52.5 130zM491 1356q0 -18 3 -38t5 -24q21 -8 76 -8q119 0 119 92q0 18 -3 38t-5 24q-20 8 -76 8q-119 0 -119 -92z" />
    <glyph glyph-name="ae" unicode="&#xe6;" horiz-adv-x="1413" 
d="M-18 211q0 43 5 90t13 82q33 162 139.5 223.5t280.5 61.5q29 0 53.5 -1t46.5 -3l23 124q-23 2 -45.5 3.5t-44.5 1.5q-72 0 -157 -11.5t-163 -36.5v310q43 14 142.5 36.5t287.5 22.5q82 0 135.5 -21.5t83.5 -56.5q66 41 141.5 59.5t153.5 18.5q98 0 160.5 -22.5
t97.5 -62.5t48.5 -93t13.5 -117q0 -94 -22.5 -198.5t-61.5 -208.5l-463 -29q-2 -12 -2 -24.5v-22.5q0 -18 1 -32.5t3 -27.5q63 0 127.5 4.5t121 10.5t98.5 13t61 13v-284q-37 -14 -150 -36t-285 -22q-111 0 -178 28t-106 75q-47 -29 -126 -62.5t-186 -33.5q-141 0 -194 61
t-53 168zM317 246q49 0 89 10t71 27v51q0 31 2 62.5t6 64.5q-14 4 -28.5 6t-30.5 2q-55 0 -79.5 -50t-29.5 -173zM879 588l143 12q16 68 27.5 129.5t15.5 99.5q-10 4 -24.5 6.5t-28.5 2.5q-20 0 -39 -5.5t-35 -30t-31.5 -74.5t-27.5 -140z" />
    <glyph glyph-name="ccedilla" unicode="&#xe7;" horiz-adv-x="776" 
d="M12 336q0 55 8.5 114.5t18.5 118.5q31 164 75 269.5t106.5 167t147.5 85t199 23.5q80 0 148.5 -13.5t105.5 -27.5l-78 -307q-31 10 -74.5 18.5t-97.5 8.5q-18 0 -39.5 -4.5t-43 -26t-42 -68.5t-36.5 -133q-16 -92 -24.5 -154.5t-10.5 -109.5q70 0 148.5 13.5t127.5 27.5
v-311q-35 -12 -104.5 -28.5t-159.5 -21.5q41 -29 73 -69.5t32 -102.5q0 -51 -21.5 -82.5t-59.5 -50t-89.5 -24.5t-108.5 -6l-25 116q66 4 88.5 11.5t22.5 29.5q0 27 -31.5 40.5t-85.5 23.5v31l84 86q-90 8 -140 39.5t-75.5 79.5t-32 108.5t-6.5 128.5z" />
    <glyph glyph-name="egrave" unicode="&#xe8;" horiz-adv-x="946" 
d="M10 334q0 55 8.5 115.5t18.5 119.5q31 164 79 269.5t115.5 167t157.5 85t209 23.5q102 0 166.5 -22.5t101.5 -62.5t50.5 -93t13.5 -117q0 -94 -22.5 -198.5t-61.5 -208.5l-463 -29q-2 -12 -2 -24.5v-22.5q0 -18 1 -32.5t3 -27.5q63 0 128 4.5t121 10.5t98 13t61 13v-284
q-37 -14 -150 -36t-285 -22q-113 0 -181 29t-105 78t-49.5 114.5t-12.5 137.5zM385 1272l77 215l435 -176l-62 -160zM412 588l143 12q16 68 27.5 129.5t15.5 99.5q-10 4 -24.5 6.5t-28.5 2.5q-20 0 -39 -5.5t-35 -30t-31.5 -74.5t-27.5 -140z" />
    <glyph glyph-name="eacute" unicode="&#xe9;" horiz-adv-x="946" 
d="M10 334q0 55 8.5 115.5t18.5 119.5q31 164 79 269.5t115.5 167t157.5 85t209 23.5q102 0 166.5 -22.5t101.5 -62.5t50.5 -93t13.5 -117q0 -94 -22.5 -198.5t-61.5 -208.5l-463 -29q-2 -12 -2 -24.5v-22.5q0 -18 1 -32.5t3 -27.5q63 0 128 4.5t121 10.5t98 13t61 13v-284
q-37 -14 -150 -36t-285 -22q-113 0 -181 29t-105 78t-49.5 114.5t-12.5 137.5zM361 1311l487 176l52 -215l-498 -121zM412 588l143 12q16 68 27.5 129.5t15.5 99.5q-10 4 -24.5 6.5t-28.5 2.5q-20 0 -39 -5.5t-35 -30t-31.5 -74.5t-27.5 -140z" />
    <glyph glyph-name="ecircumflex" unicode="&#xea;" horiz-adv-x="946" 
d="M10 334q0 55 8.5 115.5t18.5 119.5q31 164 79 269.5t115.5 167t157.5 85t209 23.5q102 0 166.5 -22.5t101.5 -62.5t50.5 -93t13.5 -117q0 -94 -22.5 -198.5t-61.5 -208.5l-463 -29q-2 -12 -2 -24.5v-22.5q0 -18 1 -32.5t3 -27.5q63 0 128 4.5t121 10.5t98 13t61 13v-284
q-37 -14 -150 -36t-285 -22q-113 0 -181 29t-105 78t-49.5 114.5t-12.5 137.5zM303 1272l348 184l285 -178l-64 -135l-260 96l-256 -96zM412 588l143 12q16 68 27.5 129.5t15.5 99.5q-10 4 -24.5 6.5t-28.5 2.5q-20 0 -39 -5.5t-35 -30t-31.5 -74.5t-27.5 -140z" />
    <glyph glyph-name="edieresis" unicode="&#xeb;" horiz-adv-x="946" 
d="M10 334q0 55 8.5 115.5t18.5 119.5q31 164 79 269.5t115.5 167t157.5 85t209 23.5q102 0 166.5 -22.5t101.5 -62.5t50.5 -93t13.5 -117q0 -94 -22.5 -198.5t-61.5 -208.5l-463 -29q-2 -12 -2 -24.5v-22.5q0 -18 1 -32.5t3 -27.5q63 0 128 4.5t121 10.5t98 13t61 13v-284
q-37 -14 -150 -36t-285 -22q-113 0 -181 29t-105 78t-49.5 114.5t-12.5 137.5zM260 1186l39 209l299 20l-39 -209zM412 588l143 12q16 68 27.5 129.5t15.5 99.5q-10 4 -24.5 6.5t-28.5 2.5q-20 0 -39 -5.5t-35 -30t-31.5 -74.5t-27.5 -140zM639 1186l39 209l299 20l-39 -209
z" />
    <glyph glyph-name="igrave" unicode="&#xec;" horiz-adv-x="507" 
d="M-43 0l199 1081l376 23l-202 -1104h-373zM146 1272l77 215l435 -176l-62 -160z" />
    <glyph glyph-name="iacute" unicode="&#xed;" horiz-adv-x="507" 
d="M-43 0l199 1081l376 23l-202 -1104h-373zM121 1311l487 176l52 -215l-498 -121z" />
    <glyph glyph-name="icircumflex" unicode="&#xee;" horiz-adv-x="507" 
d="M-43 0l199 1081l376 23l-202 -1104h-373zM61 1272l348 184l285 -178l-64 -135l-260 96l-256 -96z" />
    <glyph glyph-name="idieresis" unicode="&#xef;" horiz-adv-x="507" 
d="M-43 0l199 1081l376 23l-202 -1104h-373zM18 1186l39 209l299 20l-39 -209zM397 1186l39 209l299 20l-39 -209z" />
    <glyph glyph-name="eth" unicode="&#xf0;" horiz-adv-x="1005" 
d="M2 313q0 55 6 110.5t17 115.5q27 145 90 228t137 123t145.5 49t118.5 9q45 0 86 -10l2 4q-23 109 -100 168l-187 -135l-63 104l123 90q-82 33 -203 45l154 220q186 -20 309 -74l176 129l64 -105l-121 -90q121 -86 166 -215t45 -286q0 -33 -2 -75t-6.5 -85t-8.5 -84
t-10 -72q-27 -152 -76 -250t-118.5 -154.5t-160.5 -78t-202 -21.5q-113 0 -186.5 29t-116.5 77t-60.5 108.5t-17.5 125.5zM371 268q18 -6 39 -6q25 0 48 3t43.5 24.5t38 66.5t31.5 129q8 47 15.5 96.5t11.5 102.5q-23 6 -43 6q-25 0 -48.5 -3t-44 -21.5t-37.5 -57.5
t-30 -108q-10 -53 -15 -89t-7 -61.5t-2 -44v-37.5z" />
    <glyph glyph-name="ntilde" unicode="&#xf1;" horiz-adv-x="1054" 
d="M-43 0l199 1081l352 23l-25 -131h4q20 16 57.5 40.5t83.5 47t99 38t107 15.5q63 0 105 -16.5t65.5 -41t33 -56t9.5 -62.5q0 -16 -1.5 -26.5t-3.5 -20.5l-161 -891h-373l143 782q-53 0 -100 -14t-88 -37l-133 -731h-373zM316 1362q18 14 42.5 30.5t51 30t52.5 22.5t46 9
q43 0 79 -16.5t70.5 -35t70.5 -34.5t79 -16l129 57l27 -162q-18 -14 -43 -30.5t-51.5 -29.5t-52 -22.5t-46.5 -9.5q-43 0 -78.5 16.5t-70.5 35t-71 34.5t-79 16l-129 -57z" />
    <glyph glyph-name="ograve" unicode="&#xf2;" horiz-adv-x="1009" 
d="M10 334q0 55 8.5 115.5t18.5 119.5q31 164 79 269.5t115.5 167t157.5 85t209 23.5q113 0 186.5 -29.5t116.5 -79t60.5 -115t17.5 -136.5q0 -55 -8 -115.5t-19 -120.5q-31 -164 -79 -269.5t-115.5 -165.5t-157.5 -84t-209 -24q-113 0 -186.5 29t-116.5 78t-60.5 114.5
t-17.5 137.5zM373 268q10 -2 19 -3t20 -1q20 0 42.5 4t44 29t43 78t40.5 151q20 104 27 174t7 121q-18 6 -38 6q-25 0 -47.5 -6t-42 -28.5t-41 -77t-39.5 -152.5q-20 -104 -27.5 -174t-7.5 -121zM383 1272l77 215l435 -176l-62 -160z" />
    <glyph glyph-name="oacute" unicode="&#xf3;" horiz-adv-x="1009" 
d="M10 334q0 55 8.5 115.5t18.5 119.5q31 164 79 269.5t115.5 167t157.5 85t209 23.5q113 0 186.5 -29.5t116.5 -79t60.5 -115t17.5 -136.5q0 -55 -8 -115.5t-19 -120.5q-31 -164 -79 -269.5t-115.5 -165.5t-157.5 -84t-209 -24q-113 0 -186.5 29t-116.5 78t-60.5 114.5
t-17.5 137.5zM358 1311l487 176l52 -215l-498 -121zM373 268q10 -2 19 -3t20 -1q20 0 42.5 4t44 29t43 78t40.5 151q20 104 27 174t7 121q-18 6 -38 6q-25 0 -47.5 -6t-42 -28.5t-41 -77t-39.5 -152.5q-20 -104 -27.5 -174t-7.5 -121z" />
    <glyph glyph-name="ocircumflex" unicode="&#xf4;" horiz-adv-x="1009" 
d="M10 334q0 55 8.5 115.5t18.5 119.5q31 164 79 269.5t115.5 167t157.5 85t209 23.5q113 0 186.5 -29.5t116.5 -79t60.5 -115t17.5 -136.5q0 -55 -8 -115.5t-19 -120.5q-31 -164 -79 -269.5t-115.5 -165.5t-157.5 -84t-209 -24q-113 0 -186.5 29t-116.5 78t-60.5 114.5
t-17.5 137.5zM301 1272l348 184l285 -178l-64 -135l-260 96l-256 -96zM373 268q10 -2 19 -3t20 -1q20 0 42.5 4t44 29t43 78t40.5 151q20 104 27 174t7 121q-18 6 -38 6q-25 0 -47.5 -6t-42 -28.5t-41 -77t-39.5 -152.5q-20 -104 -27.5 -174t-7.5 -121z" />
    <glyph glyph-name="otilde" unicode="&#xf5;" horiz-adv-x="1009" 
d="M10 334q0 55 8.5 115.5t18.5 119.5q31 164 79 269.5t115.5 167t157.5 85t209 23.5q113 0 186.5 -29.5t116.5 -79t60.5 -115t17.5 -136.5q0 -55 -8 -115.5t-19 -120.5q-31 -164 -79 -269.5t-115.5 -165.5t-157.5 -84t-209 -24q-113 0 -186.5 29t-116.5 78t-60.5 114.5
t-17.5 137.5zM299 1362q18 14 42.5 30.5t51 30t52.5 22.5t46 9q43 0 79 -16.5t70.5 -35t70.5 -34.5t79 -16l129 57l27 -162q-18 -14 -43 -30.5t-51.5 -29.5t-52 -22.5t-46.5 -9.5q-43 0 -78.5 16.5t-70.5 35t-71 34.5t-79 16l-129 -57zM373 268q10 -2 19 -3t20 -1
q20 0 42.5 4t44 29t43 78t40.5 151q20 104 27 174t7 121q-18 6 -38 6q-25 0 -47.5 -6t-42 -28.5t-41 -77t-39.5 -152.5q-20 -104 -27.5 -174t-7.5 -121z" />
    <glyph glyph-name="odieresis" unicode="&#xf6;" horiz-adv-x="1009" 
d="M10 334q0 55 8.5 115.5t18.5 119.5q31 164 79 269.5t115.5 167t157.5 85t209 23.5q113 0 186.5 -29.5t116.5 -79t60.5 -115t17.5 -136.5q0 -55 -8 -115.5t-19 -120.5q-31 -164 -79 -269.5t-115.5 -165.5t-157.5 -84t-209 -24q-113 0 -186.5 29t-116.5 78t-60.5 114.5
t-17.5 137.5zM258 1186l39 209l299 20l-39 -209zM373 268q10 -2 19 -3t20 -1q20 0 42.5 4t44 29t43 78t40.5 151q20 104 27 174t7 121q-18 6 -38 6q-25 0 -47.5 -6t-42 -28.5t-41 -77t-39.5 -152.5q-20 -104 -27.5 -174t-7.5 -121zM637 1186l39 209l299 20l-39 -209z" />
    <glyph glyph-name="divide" unicode="&#xf7;" 
d="M43 500l49 284h778l-49 -284h-778zM227 143l43 246h281l-43 -246h-281zM358 889l43 246h281l-43 -246h-281z" />
    <glyph glyph-name="oslash" unicode="&#xf8;" horiz-adv-x="1009" 
d="M-86 -143l166 233q-39 49 -54.5 111.5t-15.5 132.5q0 55 8.5 115.5t18.5 119.5q31 164 79 269.5t115.5 167t157.5 85t209 23.5q86 0 152 -18l90 135h235l-168 -234q41 -49 56.5 -111.5t15.5 -131.5q0 -55 -8 -115.5t-19 -120.5q-31 -164 -79 -269.5t-115.5 -167
t-157.5 -85t-209 -23.5q-88 0 -151 19l-90 -135h-236zM373 266q10 -2 19 -3t20 -1q25 0 46 5t41.5 28.5t42 78t40.5 152.5q20 104 27 174t7 121q-18 6 -38 6q-25 0 -46.5 -5t-42 -28.5t-42 -78t-39.5 -154.5q-20 -104 -27.5 -174t-7.5 -121z" />
    <glyph glyph-name="ugrave" unicode="&#xf9;" horiz-adv-x="1042" 
d="M-8 186q0 12 1 24.5t3 22.5l156 848l374 23l-145 -785q53 0 97 13.5t83 36.5l131 712l375 23l-201 -1104h-352l25 127h-4q-20 -16 -55.5 -42t-79.5 -48.5t-95 -38.5t-104 -16q-66 0 -106 19t-63.5 50t-31.5 67t-8 68zM408 1272l77 215l435 -176l-62 -160z" />
    <glyph glyph-name="uacute" unicode="&#xfa;" horiz-adv-x="1042" 
d="M-8 186q0 12 1 24.5t3 22.5l156 848l374 23l-145 -785q53 0 97 13.5t83 36.5l131 712l375 23l-201 -1104h-352l25 127h-4q-20 -16 -55.5 -42t-79.5 -48.5t-95 -38.5t-104 -16q-66 0 -106 19t-63.5 50t-31.5 67t-8 68zM383 1311l487 176l52 -215l-498 -121z" />
    <glyph glyph-name="ucircumflex" unicode="&#xfb;" horiz-adv-x="1042" 
d="M-8 186q0 12 1 24.5t3 22.5l156 848l374 23l-145 -785q53 0 97 13.5t83 36.5l131 712l375 23l-201 -1104h-352l25 127h-4q-20 -16 -55.5 -42t-79.5 -48.5t-95 -38.5t-104 -16q-66 0 -106 19t-63.5 50t-31.5 67t-8 68zM326 1272l348 184l285 -178l-64 -135l-260 96
l-256 -96z" />
    <glyph glyph-name="udieresis" unicode="&#xfc;" horiz-adv-x="1042" 
d="M-8 186q0 12 1 24.5t3 22.5l156 848l374 23l-145 -785q53 0 97 13.5t83 36.5l131 712l375 23l-201 -1104h-352l25 127h-4q-20 -16 -55.5 -42t-79.5 -48.5t-95 -38.5t-104 -16q-66 0 -106 19t-63.5 50t-31.5 67t-8 68zM280 1186l39 209l299 20l-39 -209zM659 1186l39 209
l299 20l-39 -209z" />
    <glyph glyph-name="yacute" unicode="&#xfd;" horiz-adv-x="997" 
d="M25 20q53 -10 111.5 -17t123.5 -7q41 0 62.5 12t31.5 45l23 76l-236 -14l-67 966l381 23v-737h4l241 723h385l-419 -1104q-20 -55 -49 -110.5t-71 -100.5t-101.5 -73t-141.5 -28q-117 0 -185.5 11.5t-92.5 19.5v315zM365 1311l487 176l52 -215l-498 -121z" />
    <glyph glyph-name="thorn" unicode="&#xfe;" horiz-adv-x="1026" 
d="M-104 -328l317 1721l379 41l-82 -435h4q45 41 108.5 78t143.5 37q111 0 169 -75.5t58 -250.5q0 -55 -6 -121.5t-16 -125.5q-31 -160 -76 -266.5t-112.5 -170t-165 -90t-232.5 -26.5h-28.5t-30.5 2l-52 -277zM379 281q12 -2 24.5 -3.5t24.5 -1.5q20 0 43 4.5t44.5 28
t43 75.5t39.5 148q18 90 23.5 149.5t7.5 106.5q-88 -2 -164 -34z" />
    <glyph glyph-name="ydieresis" unicode="&#xff;" horiz-adv-x="997" 
d="M25 20q53 -10 111.5 -17t123.5 -7q41 0 62.5 12t31.5 45l23 76l-236 -14l-67 966l381 23v-737h4l241 723h385l-419 -1104q-20 -55 -49 -110.5t-71 -100.5t-101.5 -73t-141.5 -28q-117 0 -185.5 11.5t-92.5 19.5v315zM264 1186l39 209l299 20l-39 -209zM643 1186l39 209
l299 20l-39 -209z" />
    <glyph glyph-name="OE" unicode="&#x152;" horiz-adv-x="1368" 
d="M29 346q0 92 13 194.5t36 213.5q33 164 81 281.5t119.5 193.5t171 111.5t238.5 35.5q41 0 88 -7t88 -17h580l-86 -330h-303l-33 -184h301l-57 -310h-301l-35 -194h346l-88 -334h-588q-47 -10 -102.5 -17.5t-104.5 -7.5q-115 0 -186.5 27t-111.5 76t-53 117.5t-13 150.5z
M393 299q12 -2 28.5 -3t22.5 -1q33 0 59.5 5t49.5 15l135 740q-23 2 -31 2h-20q-37 0 -63.5 -14.5t-46 -50.5t-38 -94t-38.5 -146q-23 -96 -37.5 -218t-20.5 -235z" />
    <glyph glyph-name="oe" unicode="&#x153;" horiz-adv-x="1501" 
d="M10 334q0 55 8.5 115.5t18.5 119.5q31 164 79 269.5t115.5 167t157.5 85t209 23.5q104 0 166.5 -28.5t97.5 -77.5q119 106 291 106q102 0 166.5 -22.5t101.5 -62.5t50.5 -93t13.5 -117q0 -94 -22.5 -198.5t-61.5 -208.5l-463 -29q-2 -12 -2 -24.5v-22.5q0 -18 1 -33.5
t3 -28.5q63 0 128 4.5t121 10.5t98 13t61 13v-284q-37 -14 -150 -36t-285 -22q-96 0 -152 27t-85 74q-59 -53 -130 -76t-155 -23q-113 0 -186.5 29t-116.5 78t-60.5 114.5t-17.5 137.5zM373 268q10 -2 19 -3t20 -1q23 0 45 5t42.5 29t42 77t40.5 151q20 104 27 174t7 121
q-18 6 -38 6q-25 0 -46.5 -6t-42 -29.5t-42 -78t-39.5 -152.5q-20 -104 -27.5 -173t-7.5 -120zM967 588l143 12q16 68 27.5 129.5t15.5 99.5q-10 4 -24.5 6.5t-28.5 2.5q-20 0 -39 -5.5t-35 -30t-31.5 -74.5t-27.5 -140z" />
    <glyph glyph-name="Ydieresis" unicode="&#x178;" horiz-adv-x="1028" 
d="M119 1346l393 24l20 -579h5l233 561h410l-527 -910l-80 -442h-370l84 463zM332 1419l32 176l293 19l-33 -176zM686 1419l33 176l292 19l-32 -176z" />
    <glyph glyph-name="circumflex" unicode="&#x2c6;" horiz-adv-x="997" 
d="M346 1272l348 184l285 -178l-64 -135l-260 96l-256 -96z" />
    <glyph glyph-name="ring" unicode="&#x2da;" horiz-adv-x="800" 
d="M305 1333q0 49 20.5 91t60.5 75t95.5 51.5t126.5 18.5q127 0 179.5 -50.5t52.5 -129.5q0 -49 -20.5 -91.5t-60.5 -75t-96 -51t-126 -18.5q-127 0 -179.5 50t-52.5 130zM471 1350q0 -18 3 -38t5 -24q21 -8 76 -8q119 0 119 92q0 18 -3 38t-5 24q-20 8 -76 8
q-119 0 -119 -92z" />
    <glyph glyph-name="tilde" unicode="&#x2dc;" horiz-adv-x="1003" 
d="M322 1362q18 14 42.5 30.5t51 30t52.5 22.5t46 9q43 0 79 -16.5t70.5 -35t70.5 -34.5t79 -16l129 57l27 -162q-18 -14 -43 -30.5t-51.5 -29.5t-52 -22.5t-46.5 -9.5q-43 0 -78.5 16.5t-70.5 35t-71 34.5t-79 16l-129 -57z" />
    <glyph glyph-name="uni0400" unicode="&#x400;" horiz-adv-x="833" 
d="M-37 0l248 1352h700l-86 -330h-303l-33 -184h302l-58 -310h-301l-35 -194h346l-88 -334h-692zM363 1487l53 180l408 -137l-37 -125z" />
    <glyph glyph-name="uni0401" unicode="&#x401;" horiz-adv-x="833" 
d="M-37 0l248 1352h700l-86 -330h-303l-33 -184h302l-58 -310h-301l-35 -194h346l-88 -334h-692zM240 1419l32 176l293 19l-33 -176zM594 1419l33 176l292 19l-32 -176z" />
    <glyph glyph-name="uni0402" unicode="&#x402;" horiz-adv-x="1175" 
d="M109 0l192 1042h-188l55 310h807l-84 -310h-217l-37 -192q53 14 108.5 24.5t98.5 10.5q88 0 144 -21.5t88 -64.5t43 -109.5t11 -154.5q0 -35 -7 -90.5t-17 -106.5q-25 -115 -61.5 -184.5t-87 -108.5t-112 -51t-132.5 -12q-63 0 -131 12l49 301q31 0 65.5 15.5t47 62.5
t15.5 80.5t3 56.5v34.5t-4 33.5h-29q-39 0 -81 -8.5t-66 -18.5l-101 -551h-372z" />
    <glyph glyph-name="uni0403" unicode="&#x403;" horiz-adv-x="743" 
d="M-37 0l248 1352h645l-86 -330h-248l-186 -1022h-373zM340 1530l440 137l39 -180l-446 -82z" />
    <glyph glyph-name="uni0404" unicode="&#x404;" horiz-adv-x="876" 
d="M39 449q0 141 35 305q37 182 89 302t128 191.5t177 101t241 29.5q29 0 65.5 -4t72.5 -10t67.5 -14.5t52.5 -16.5l-78 -319q-33 6 -67 12t-71.5 11t-74.5 5q-33 0 -62.5 -7t-54 -29.5t-46 -62.5t-36.5 -105l305 12l-57 -320l-303 -12q-4 -35 -6 -68.5t-2 -64.5
q0 -39 6 -72q106 0 194 10.5t166 32.5l-63 -336q-20 -8 -52 -16t-70 -15t-79 -11.5t-78 -4.5q-131 0 -209.5 33t-120.5 94.5t-55.5 149.5t-13.5 199z" />
    <glyph glyph-name="uni0405" unicode="&#x405;" horiz-adv-x="784" 
d="M-37 25l27 340q35 -14 106.5 -31t163.5 -17h21.5t21.5 2q4 14 8 32t4 36q0 37 -14 68.5t-35 76.5l-69 154q-31 66 -49.5 135.5t-18.5 132.5q0 106 32 185.5t90 131.5t140 78.5t180 26.5q117 0 192 -16.5t109 -30.5l-77 -321q-47 16 -90 24t-97 8q-102 0 -102 -79
q0 -35 10 -66t37 -90l65 -156q25 -59 48.5 -127.5t23.5 -142.5q0 -106 -30.5 -182t-84 -125t-127 -73t-161.5 -24q-129 0 -209 17.5t-115 32.5z" />
    <glyph glyph-name="uni0406" unicode="&#x406;" horiz-adv-x="522" 
d="M-37 0l248 1352h373l-248 -1352h-373z" />
    <glyph glyph-name="uni0407" unicode="&#x407;" horiz-adv-x="522" 
d="M-37 0l248 1352h373l-248 -1352h-373zM91 1419l32 176l293 19l-33 -176zM445 1419l33 176l292 19l-32 -176z" />
    <glyph glyph-name="uni0408" unicode="&#x408;" horiz-adv-x="561" 
d="M-160 -74q51 51 102.5 110.5t88.5 115.5l221 1200h373l-209 -1125q-20 -104 -46 -185t-81 -140l-41 -41t-52.5 -49.5t-54 -47t-45.5 -34.5z" />
    <glyph glyph-name="uni0409" unicode="&#x409;" horiz-adv-x="1611" 
d="M-88 0l63 334q27 -6 56 -6q41 0 58 22.5t36 93.5l248 908h831l-88 -480q47 12 95.5 21.5t95.5 9.5q78 0 128 -22.5t79.5 -60.5t41 -87t11.5 -102q0 -51 -7.5 -114.5t-17.5 -117.5q-20 -98 -56 -175t-97.5 -129t-158.5 -78.5t-241 -26.5q-129 0 -230.5 5t-174.5 11
l186 1016h-117l-194 -725q-18 -70 -42 -127t-64 -98t-104.5 -63.5t-164.5 -22.5q-45 0 -82 2t-90 12zM1010 297h61q33 0 56.5 16.5t40 53t26.5 96t16 147.5q-16 2 -24.5 2h-20.5q-23 0 -48 -3t-50 -7z" />
    <glyph glyph-name="uni040A" unicode="&#x40a;" horiz-adv-x="1536" 
d="M-37 0l248 1352h373l-92 -498h172l92 498h372l-88 -480q47 12 95.5 21.5t95.5 9.5q78 0 128 -22.5t79.5 -60.5t41 -87t11.5 -102q0 -51 -7 -114.5t-18 -117.5q-20 -98 -56 -175t-97.5 -129t-158.5 -78.5t-241 -26.5q-129 0 -230 5t-175 11l94 510h-172l-94 -516h-373z
M934 297h61q33 0 56.5 16.5t40 53t26.5 96t17 147.5q-16 2 -24.5 2h-20.5q-23 0 -48.5 -3t-50.5 -7z" />
    <glyph glyph-name="uni040B" unicode="&#x40b;" horiz-adv-x="1179" 
d="M109 0l190 1042h-186l53 310h807l-84 -310h-217l-35 -192q59 14 119.5 24.5t105.5 10.5q80 0 132.5 -16.5t83 -46t43 -70.5t12.5 -90q0 -51 -5.5 -94.5t-15.5 -96.5l-86 -471h-373l105 565q-16 2 -24.5 2h-20.5q-29 0 -66 -5t-65 -11l-101 -551h-372z" />
    <glyph glyph-name="uni040C" unicode="&#x40c;" horiz-adv-x="1085" 
d="M-37 0l248 1352h373l-95 -512l37 2l310 510h391l-430 -682l188 -664l-383 -24l-137 546l-33 -2l-96 -526h-373zM490 1530l440 137l39 -180l-446 -82z" />
    <glyph glyph-name="uni040D" unicode="&#x40d;" horiz-adv-x="1136" 
d="M-35 10l248 1342h348l-119 -652h4l385 662l365 -23l-246 -1339h-350l123 674h-4l-389 -686zM508 1487l53 180l408 -137l-37 -125z" />
    <glyph glyph-name="uni040E" unicode="&#x40e;" horiz-adv-x="997" 
d="M-29 16l29 346q23 -8 57.5 -15t86 -14t124.5 -11l-129 1015l385 23l-4 -713h4l228 705h387l-453 -1065q-27 -61 -57.5 -118.5t-74.5 -100.5t-109.5 -69t-161.5 -26q-113 0 -184.5 13.5t-127.5 29.5zM345 1628l147 35q10 -35 48 -63.5t93 -28.5q72 0 115 25.5t59 66.5
l134 -35q-18 -43 -42 -82t-61 -67.5t-89 -45t-128 -16.5q-68 0 -115 17.5t-79.5 46t-52 67.5t-29.5 80z" />
    <glyph glyph-name="uni040F" unicode="&#x40f;" horiz-adv-x="1073" 
d="M-37 0l248 1352h373l-187 -1018h178l187 1018h373l-248 -1352h-295l-47 -266h-336l47 266h-293z" />
    <glyph glyph-name="uni0410" unicode="&#x410;" horiz-adv-x="1032" 
d="M-117 0l541 1346l469 18l41 -1358l-373 -24l4 229h-241l-68 -211h-373zM418 500h155l15 512h-4z" />
    <glyph glyph-name="uni0411" unicode="&#x411;" horiz-adv-x="976" 
d="M-35 6l248 1346h801l-84 -318h-404l-37 -196q47 10 94.5 17t92.5 7q78 0 127 -20.5t77.5 -56t39 -84t10.5 -101.5q0 -51 -8.5 -108.5t-18.5 -110.5q-23 -98 -57.5 -172t-95 -123t-152.5 -72.5t-227 -23.5q-129 0 -230.5 5t-175.5 11zM391 297h47q33 0 56.5 9t41 37
t28.5 80t18 140q-16 2 -24.5 2h-20.5q-23 0 -48.5 -3t-50.5 -7z" />
    <glyph glyph-name="uni0412" unicode="&#x412;" horiz-adv-x="1001" 
d="M-35 4l246 1348q63 4 184 10t264 6q106 0 176 -17.5t111 -50t58.5 -78.5t17.5 -104q0 -25 -2 -50.5t-12 -72.5q-6 -37 -20.5 -73.5t-39 -71.5t-60.5 -64.5t-85 -48.5v-4q123 -59 123 -201q0 -35 -2 -65.5t-13 -83.5q-14 -86 -44.5 -157.5t-89 -123t-150.5 -80t-230 -28.5
q-154 0 -262 3t-170 7zM377 301q16 -2 24.5 -2h34.5q33 0 57.5 5t42 30.5t27.5 78t17 148.5q-12 2 -32 3t-32 1q-23 0 -44 -1t-44 -5zM473 821h49q33 0 57.5 4t41 29t29 77t20.5 146q-12 2 -30.5 3t-31.5 1q-23 0 -50.5 -2t-37.5 -4z" />
    <glyph glyph-name="uni0413" unicode="&#x413;" horiz-adv-x="743" 
d="M-37 0l248 1352h645l-86 -330h-248l-186 -1022h-373z" />
    <glyph glyph-name="uni0414" unicode="&#x414;" horiz-adv-x="1230" 
d="M-123 -266l109 600h80q53 51 94 124.5t78 213.5l180 680h811l-187 -1018h101l-109 -600h-336l47 266h-485l-47 -266h-336zM457 334h213l125 688h-103l-102 -385q-31 -117 -62.5 -186.5t-70.5 -116.5z" />
    <glyph glyph-name="uni0415" unicode="&#x415;" horiz-adv-x="833" 
d="M-37 0l248 1352h700l-86 -330h-303l-33 -184h302l-58 -310h-301l-35 -194h346l-88 -334h-692z" />
    <glyph glyph-name="uni0416" unicode="&#x416;" horiz-adv-x="1595" 
d="M-113 0l400 682l-156 659l383 23l109 -537l30 2l97 523h372l-94 -512l29 2l286 510h392l-400 -682l156 -660l-383 -22l-111 540l-26 -2l-97 -526h-372l94 518l-29 -2l-288 -516h-392z" />
    <glyph glyph-name="uni0417" unicode="&#x417;" horiz-adv-x="837" 
d="M-57 0l63 336q18 -4 58 -5t71 -1q80 0 135 8t78 24q16 14 28.5 51.5t16.5 108.5q-10 2 -18 2h-19q-115 0 -268 -12l59 313q61 4 98.5 6.5t84.5 4.5q49 2 79.5 14t47 31.5t21.5 47t5 60.5v16.5t-2 18.5q-10 2 -20 2h-21q-86 0 -163.5 -6t-143.5 -23l64 344q47 16 128 26.5
t207 10.5q92 0 156 -23.5t102.5 -60.5t56 -83t17.5 -93q0 -20 -3 -66t-15 -94q-23 -84 -68 -140t-92 -93v-4q45 -29 60.5 -70t15.5 -94q0 -92 -25 -197q-25 -117 -78 -189.5t-126.5 -113.5t-165 -56t-193.5 -15q-70 0 -127 3t-104 11z" />
    <glyph glyph-name="uni0418" unicode="&#x418;" horiz-adv-x="1136" 
d="M-35 10l248 1342h348l-119 -652h4l385 662l365 -23l-246 -1339h-350l123 674h-4l-389 -686z" />
    <glyph glyph-name="uni0419" unicode="&#x419;" horiz-adv-x="1136" 
d="M-35 10l248 1342h348l-119 -652h4l385 662l365 -23l-246 -1339h-350l123 674h-4l-389 -686zM445 1628l147 35q10 -35 48 -63.5t93 -28.5q72 0 115 25.5t59 66.5l134 -35q-18 -43 -42 -82t-61 -67.5t-89 -45t-128 -16.5q-68 0 -115 17.5t-79.5 46t-52 67.5t-29.5 80z" />
    <glyph glyph-name="uni041A" unicode="&#x41a;" horiz-adv-x="1085" 
d="M-37 0l248 1352h373l-95 -512l37 2l310 510h391l-430 -682l188 -664l-383 -24l-137 546l-33 -2l-96 -526h-373z" />
    <glyph glyph-name="uni041B" unicode="&#x41b;" horiz-adv-x="1142" 
d="M-88 0l63 334q27 -6 56 -6q41 0 58 22.5t36 93.5l248 908h831l-248 -1352h-372l186 1022h-117l-194 -725q-18 -70 -42 -127t-64 -98t-104.5 -63.5t-164.5 -22.5q-45 0 -82 2t-90 12z" />
    <glyph glyph-name="uni041C" unicode="&#x41c;" horiz-adv-x="1492" 
d="M-70 0l344 1352h451l18 -729h5l256 729h483l-137 -1342l-361 -22l86 717h-4l-291 -695l-276 -22l-47 719h-4l-164 -707h-359z" />
    <glyph glyph-name="uni041D" unicode="&#x41d;" horiz-adv-x="1073" 
d="M-37 0l248 1352h373l-92 -498h178l92 498h373l-248 -1352h-373l94 516h-178l-94 -516h-373z" />
    <glyph glyph-name="uni041E" unicode="&#x41e;" horiz-adv-x="1046" 
d="M23 346q0 92 17 193.5t40 212.5q33 164 79 281.5t116.5 194.5t169 112.5t235.5 35.5q106 0 177 -26.5t114 -75.5t60.5 -118t17.5 -150q0 -92 -16.5 -193.5t-39.5 -212.5q-33 -164 -80 -281.5t-116.5 -194.5t-169 -113t-236.5 -36q-106 0 -177 27t-114 76t-60 117.5
t-17 150.5zM381 299q16 -2 28.5 -2h26.5q37 0 62.5 14.5t45 50t37 94t37.5 146.5q23 96 43.5 218t26.5 235q-20 2 -29.5 2h-23.5q-37 0 -62.5 -15.5t-45 -50.5t-37 -94t-37.5 -147q-23 -96 -44.5 -217t-27.5 -234z" />
    <glyph glyph-name="uni041F" unicode="&#x41f;" horiz-adv-x="1073" 
d="M-37 0l248 1352h924l-248 -1352h-373l186 1022h-178l-186 -1022h-373z" />
    <glyph glyph-name="uni0420" unicode="&#x420;" horiz-adv-x="1017" 
d="M-37 0l248 1352q43 4 108.5 7t135 5t136 3t111.5 1q188 0 266.5 -78t78.5 -221q0 -23 -1.5 -43t-3.5 -41.5t-5 -47.5t-7 -60q-16 -111 -45 -204t-80 -163t-130 -110t-195 -46l-183 -8l-61 -346h-373zM455 655l63 4q29 2 49.5 8.5t37 23t28.5 49t22 85.5q14 72 19.5 121
t7.5 109q-14 2 -33 3t-37 1q-20 0 -48.5 -3t-37.5 -5z" />
    <glyph glyph-name="uni0421" unicode="&#x421;" horiz-adv-x="829" 
d="M29 346q0 92 13 193.5t36 212.5q33 164 81 281.5t119.5 194.5t171 112.5t238.5 35.5q59 0 128 -14t110 -31l-78 -319q-29 8 -87.5 18t-125.5 10q-37 0 -62.5 -12t-46 -45t-38 -89t-37.5 -144q-23 -92 -37.5 -208t-20.5 -227q199 0 346 43l-63 -335q-20 -8 -53 -16.5
t-72 -15.5t-80 -11.5t-78 -4.5q-115 0 -186.5 27t-111.5 76t-53 117.5t-13 150.5z" />
    <glyph glyph-name="uni0422" unicode="&#x422;" horiz-adv-x="892" 
d="M109 1022l59 330h833l-86 -330h-204l-189 -1022h-372l188 1022h-229z" />
    <glyph glyph-name="uni0423" unicode="&#x423;" horiz-adv-x="997" 
d="M-29 16l29 346q23 -8 57.5 -15t86 -14t124.5 -11l-129 1015l385 23l-4 -713h4l228 705h387l-453 -1065q-27 -61 -57.5 -118.5t-74.5 -100.5t-109.5 -69t-161.5 -26q-113 0 -184.5 13.5t-127.5 29.5z" />
    <glyph glyph-name="uni0424" unicode="&#x424;" horiz-adv-x="1456" 
d="M31 438q0 63 9 146.5t21 152.5q23 137 70 235.5t123 163t180.5 100.5t239.5 48l28 150h353l-29 -154q121 -12 203 -45t131 -82t69.5 -112.5t20.5 -137.5q0 -61 -9 -140t-20 -149q-23 -137 -72 -234t-125.5 -162.5t-182 -101.5t-242.5 -48l-27 -150h-350l27 152
q-123 12 -203 42.5t-128 78t-67.5 109.5t-19.5 138zM387 427q0 -14 2 -26q16 -6 46 -11t71 -9l110 588q-45 -6 -74.5 -19.5t-49 -38t-34 -61.5t-28.5 -90q-8 -31 -15 -75t-13.5 -89t-10.5 -84t-4 -59v-26zM858 381q45 6 76 18.5t51.5 37t33.5 62.5t28 93q8 31 15 75t13 89
t10.5 84t4.5 59q0 12 -0.5 25.5t-2.5 25.5q-16 6 -46.5 11.5t-71.5 9.5z" />
    <glyph glyph-name="uni0425" unicode="&#x425;" horiz-adv-x="1058" 
d="M-115 0l371 698l-100 648l393 24l14 -481h4l197 463h426l-383 -676l151 -670l-395 -24l-63 499h-4l-195 -481h-416z" />
    <glyph glyph-name="uni0426" unicode="&#x426;" horiz-adv-x="1136" 
d="M-37 0l248 1352h373l-187 -1018h178l187 1018h373l-187 -1018h101l-109 -600h-336l47 266h-688z" />
    <glyph glyph-name="uni0427" unicode="&#x427;" horiz-adv-x="1044" 
d="M72 666q0 51 5 94t15 96l92 496h373l-111 -590q16 -2 24.5 -2h20.5q31 0 70 5t68 14l106 573h373l-250 -1352h-373l88 478q-61 -14 -122.5 -24.5t-108.5 -10.5q-80 0 -132 16t-83 46t-43 71t-12 90z" />
    <glyph glyph-name="uni0428" unicode="&#x428;" horiz-adv-x="1552" 
d="M-37 0l248 1352h367l-189 -1030h152l188 1030h367l-189 -1030h152l188 1030h367l-248 -1352h-1403z" />
    <glyph glyph-name="uni0429" unicode="&#x429;" horiz-adv-x="1615" 
d="M-37 0l248 1352h367l-189 -1030h152l188 1030h367l-189 -1030h152l188 1030h367l-189 -1030h101l-107 -588h-336l47 266h-1167z" />
    <glyph glyph-name="uni042A" unicode="&#x42a;" horiz-adv-x="1155" 
d="M106 1061l56 291h586l-89 -480q47 12 95.5 21.5t95.5 9.5q78 0 128 -22.5t79.5 -60.5t41 -87t11.5 -102q0 -51 -7 -114.5t-18 -117.5q-20 -98 -56 -175t-97.5 -129t-158.5 -78.5t-241 -26.5q-129 0 -230 5t-175 11l195 1055h-216zM553 297h61q33 0 56.5 16.5t40 53t27 96
t16.5 147.5q-16 2 -24.5 2h-20.5q-23 0 -48.5 -3t-50.5 -7z" />
    <glyph glyph-name="uni042B" unicode="&#x42b;" horiz-adv-x="1478" 
d="M-35 6l248 1346h373l-88 -480q47 12 95 21.5t95 9.5q78 0 128 -22.5t80 -60.5t41 -87t11 -102q0 -51 -7 -114.5t-17 -117.5q-20 -98 -56.5 -175t-97.5 -129t-158.5 -78.5t-240.5 -26.5q-129 0 -230.5 5t-175.5 11zM391 297h62q33 0 56 16.5t39.5 53t27 96t16.5 147.5
q-16 2 -24.5 2h-20.5q-23 0 -48.5 -3t-49.5 -7zM919 0l248 1352h373l-248 -1352h-373z" />
    <glyph glyph-name="uni042C" unicode="&#x42c;" horiz-adv-x="993" 
d="M-35 6l248 1346h373l-88 -480q47 12 95 21.5t95 9.5q78 0 128 -22.5t80 -60.5t41 -87t11 -102q0 -51 -7 -114.5t-17 -117.5q-20 -98 -56.5 -175t-97.5 -129t-158.5 -78.5t-240.5 -26.5q-129 0 -230.5 5t-175.5 11zM391 297h62q33 0 56 16.5t39.5 53t27 96t16.5 147.5
q-16 2 -24.5 2h-20.5q-23 0 -48.5 -3t-49.5 -7z" />
    <glyph glyph-name="uni042D" unicode="&#x42d;" horiz-adv-x="866" 
d="M-63 18l77 320q33 -8 67 -14.5t71.5 -10.5t74.5 -4q33 0 64 8.5t56.5 32t46 66.5t36.5 114l-309 -12l57 320l305 12q6 57 6 117q0 35 -6 69q-109 2 -195.5 -8t-164.5 -33l63 336q20 8 52 16.5t70 15.5t79 11t78 4q131 0 209 -25.5t119 -79.5t54 -136t13 -193
q0 -35 -4 -79t-10 -90t-13.5 -92t-15.5 -85q-35 -176 -85 -296t-123.5 -192.5t-175 -104.5t-238.5 -32q-29 0 -66 4.5t-73 10.5t-67.5 14t-51.5 16z" />
    <glyph glyph-name="uni042E" unicode="&#x42e;" horiz-adv-x="1562" 
d="M-37 0l248 1352h373l-92 -498h129q33 135 80 234.5t115.5 164t161.5 95t220 30.5q106 0 177 -26.5t114 -75.5t60.5 -117.5t17.5 -150.5q0 -92 -16.5 -194.5t-39.5 -213.5q-33 -164 -80 -281.5t-116.5 -194.5t-168.5 -114t-237 -37q-106 0 -176.5 27t-114 76t-60.5 117.5
t-17 150.5q0 80 12 172h-123l-94 -516h-373zM899 297q14 -2 27.5 -2h27.5q37 0 62.5 15.5t45 50t37 94t38.5 147.5q23 96 43 219t26 236q-12 2 -25.5 2h-27.5q-37 0 -62.5 -15.5t-45 -51.5t-37 -95t-37.5 -147q-23 -96 -44.5 -218t-27.5 -235z" />
    <glyph glyph-name="uni042F" unicode="&#x42f;" horiz-adv-x="1038" 
d="M-96 10l272 469q-53 39 -70.5 102.5t-17.5 145.5q0 41 7 88t18 100q23 104 56.5 187.5t89.5 143t142 91t215 31.5q45 0 112 -1t135.5 -3t132 -5t104.5 -7l-248 -1352h-373l80 430l-51 -4l-229 -438zM446 707q8 -2 22 -2h24q41 0 71.5 3t46.5 7l64 344h-60q-29 0 -50 -6
t-36.5 -21.5t-28 -43t-20.5 -73.5q-12 -59 -20 -111t-13 -97z" />
    <glyph glyph-name="uni0430" unicode="&#x430;" horiz-adv-x="940" 
d="M-18 211q0 43 5 90t13 82q33 162 139.5 223.5t280.5 61.5q29 0 53.5 -1t46.5 -3l23 124q-23 2 -45.5 3.5t-44.5 1.5q-72 0 -157 -11.5t-163 -36.5v310q55 18 168 38.5t299 20.5q102 0 164.5 -26.5t96.5 -66.5t45 -86t11 -87q0 -23 -2 -41.5t-4 -28.5l-141 -778h-350
l14 76h-4q-43 -35 -98.5 -64.5t-134.5 -29.5q-115 0 -165 61t-50 168zM317 246q39 0 71 7t60 17l35 193q-29 6 -57 6q-55 0 -80 -50t-29 -173z" />
    <glyph glyph-name="uni0431" unicode="&#x431;" horiz-adv-x="1019" 
d="M23 330q0 133 22.5 271t64.5 265t101 234.5t133 181.5q45 45 109.5 74.5t151.5 47t198.5 24t253.5 6.5l-62 -330q-117 0 -200.5 -1t-141 -7t-93.5 -19.5t-58 -36.5q-35 -35 -53.5 -68.5t-30.5 -80.5h4q57 51 133 69.5t131 18.5q86 0 140.5 -26.5t86 -72.5t43 -108.5
t11.5 -134.5q0 -63 -10.5 -140t-31 -153t-54 -144.5t-78.5 -113.5q-63 -63 -160.5 -87t-229.5 -24q-113 0 -186.5 30t-116.5 79t-60 113.5t-17 132.5zM385 289q0 -10 2 -23q10 -2 18.5 -3t18.5 -1q25 0 46.5 3t40.5 22.5t37 60.5t32 117q10 49 15 98t5 99v13t-2 15
q-10 2 -17.5 3t-17.5 1q-25 0 -48 -5t-43.5 -24.5t-37 -60.5t-28.5 -115q-10 -68 -15.5 -109.5t-5.5 -70.5v-20z" />
    <glyph glyph-name="uni0432" unicode="&#x432;" horiz-adv-x="1021" 
d="M-41 4l199 1086q63 8 186 16t283 8q100 0 172.5 -9t120 -32.5t70 -65.5t22.5 -108q0 -35 -7.5 -84t-23.5 -88q-20 -53 -59 -85t-95 -52v-4q47 -23 76 -64t29 -98q0 -29 -1 -54.5t-9 -66.5q-16 -96 -53.5 -157.5t-104 -96.5t-166.5 -47t-242 -12q-90 0 -154.5 1t-110.5 3
t-76.5 5t-55.5 5zM373 248q23 -2 33 -2h34q31 0 52.5 3t37 22.5t24.5 60.5t13 117q-16 2 -36.5 2h-30.5q-25 0 -49.5 -2.5t-42.5 -6.5zM449 659h45q37 0 61.5 4.5t40.5 25t25.5 59t15.5 110.5q-16 2 -27.5 2h-21.5q-35 0 -63.5 -1t-41.5 -5z" />
    <glyph glyph-name="uni0433" unicode="&#x433;" horiz-adv-x="755" 
d="M-43 0l201 1090h667l-84 -318h-272l-139 -772h-373z" />
    <glyph glyph-name="uni0434" unicode="&#x434;" horiz-adv-x="1191" 
d="M-123 -254l103 557h75q35 39 69 97.5t62 158.5l150 531h815l-145 -787h94l-96 -522l-318 -35l45 254h-498l-38 -219zM438 303h195l90 490h-115l-78 -289q-18 -70 -40.5 -118t-51.5 -83z" />
    <glyph glyph-name="uni0435" unicode="&#x435;" horiz-adv-x="946" 
d="M10 334q0 55 8.5 115.5t18.5 119.5q31 164 79 269.5t115.5 167t157.5 85t209 23.5q102 0 166.5 -22.5t101.5 -62.5t50.5 -93t13.5 -117q0 -94 -22.5 -198.5t-61.5 -208.5l-463 -29q-2 -12 -2 -24.5v-22.5q0 -18 1 -32.5t3 -27.5q63 0 128 4.5t121 10.5t98 13t61 13v-284
q-37 -14 -150 -36t-285 -22q-113 0 -181 29t-105 78t-49.5 114.5t-12.5 137.5zM412 588l143 12q16 68 27.5 129.5t15.5 99.5q-10 4 -24.5 6.5t-28.5 2.5q-20 0 -39 -5.5t-35 -30t-31.5 -74.5t-27.5 -140z" />
    <glyph glyph-name="uni0436" unicode="&#x436;" horiz-adv-x="1538" 
d="M-119 -12l330 547l-129 546l383 23l92 -465l35 2l82 449h370l-77 -431l28 3l236 419l403 23l-331 -582l131 -512l-383 -22l-95 428l-34 -2l-76 -414h-373l72 397l-31 -2l-229 -385z" />
    <glyph glyph-name="uni0437" unicode="&#x437;" horiz-adv-x="804" 
d="M-51 -2l51 281q8 -2 28.5 -3.5t44 -2.5t46 -2t35.5 -1q66 0 111 6.5t61 20.5q14 10 24 36.5t12 80.5q-8 2 -15 2h-13q-49 0 -127 -3t-139 -7l47 264q49 4 104 5t92 3q82 4 103.5 35.5t21.5 85.5q0 14 -2 20q-8 2 -16 2h-17q-35 0 -75.5 -1t-81.5 -4t-78 -7t-64 -10v276
q18 6 59.5 13.5t93.5 13.5t108.5 9t107.5 3q94 0 158.5 -18.5t102.5 -48t54.5 -67.5t16.5 -77q0 -16 -3 -54t-14 -75q-18 -66 -63 -112t-92 -74v-4q41 -23 63.5 -59t22.5 -83q0 -35 -4 -72.5t-15 -80.5q-23 -94 -67.5 -152.5t-108 -92.5t-140.5 -46t-159 -12q-29 0 -67.5 1
t-78.5 2t-75 3t-53 6z" />
    <glyph glyph-name="uni0438" unicode="&#x438;" horiz-adv-x="1128" 
d="M-41 10l199 1080h356l-100 -529h4l370 543l359 -23l-197 -1081h-358l98 522h-4l-364 -534z" />
    <glyph glyph-name="uni0439" unicode="&#x439;" horiz-adv-x="1128" 
d="M-41 10l199 1080h356l-100 -529h4l370 543l359 -23l-197 -1081h-358l98 522h-4l-364 -534zM377 1423l195 41q4 -53 30.5 -89t91.5 -36q70 0 106 36t56 89l180 -41q-23 -55 -52 -104t-71 -85t-98.5 -56.5t-132.5 -20.5q-147 0 -222 75t-83 191z" />
    <glyph glyph-name="uni043A" unicode="&#x43a;" horiz-adv-x="1030" 
d="M-43 0l201 1090h370l-77 -431l30 3l248 419l404 23l-347 -582l146 -512l-383 -22l-105 428l-38 -2l-76 -414h-373z" />
    <glyph glyph-name="uni043B" unicode="&#x43b;" horiz-adv-x="1099" 
d="M-47 0v299q14 -2 26.5 -3t28.5 -1q20 0 34.5 5t25 18.5t18.5 36t18 57.5l187 678h829l-198 -1090h-373l141 772h-121l-120 -475q-18 -70 -41 -126t-64 -96t-105.5 -61.5t-164.5 -21.5q-45 0 -67.5 2t-53.5 6z" />
    <glyph glyph-name="uni043C" unicode="&#x43c;" horiz-adv-x="1421" 
d="M-74 0l293 1090h436l35 -574h4l238 574h461l-115 -1080l-342 -22l70 575h-5l-256 -553l-280 -22l-55 577h-4l-140 -565h-340z" />
    <glyph glyph-name="uni043D" unicode="&#x43d;" horiz-adv-x="1058" 
d="M-43 0l201 1090h370l-71 -394h178l72 394h372l-198 -1090h-373l67 379h-178l-67 -379h-373z" />
    <glyph glyph-name="uni043E" unicode="&#x43e;" horiz-adv-x="1009" 
d="M10 334q0 55 8.5 115.5t18.5 119.5q31 164 79 269.5t115.5 167t157.5 85t209 23.5q113 0 186.5 -29.5t116.5 -79t60.5 -115t17.5 -136.5q0 -55 -8 -115.5t-19 -120.5q-31 -164 -79 -269.5t-115.5 -165.5t-157.5 -84t-209 -24q-113 0 -186.5 29t-116.5 78t-60.5 114.5
t-17.5 137.5zM373 268q10 -2 19 -3t20 -1q20 0 42.5 4t44 29t43 78t40.5 151q20 104 27 174t7 121q-18 6 -38 6q-25 0 -47.5 -6t-42 -28.5t-41 -77t-39.5 -152.5q-20 -104 -27.5 -174t-7.5 -121z" />
    <glyph glyph-name="uni043F" unicode="&#x43f;" horiz-adv-x="1058" 
d="M-43 0l201 1090h921l-198 -1090h-373l141 772h-180l-139 -772h-373z" />
    <glyph glyph-name="uni0440" unicode="&#x440;" horiz-adv-x="1026" 
d="M-102 -328l260 1409l374 23l-20 -105h4q45 41 108.5 78t143.5 37q111 0 169 -75.5t58 -250.5q0 -55 -6 -121.5t-16 -125.5q-31 -160 -76 -266.5t-112.5 -170t-165 -90t-232.5 -26.5h-28.5t-30.5 2l-52 -277zM381 281q12 -2 24.5 -3.5t24.5 -1.5q23 0 45.5 5.5t43 28
t42 74.5t39.5 148q18 90 23.5 149.5t7.5 106.5q-88 -2 -164 -34z" />
    <glyph glyph-name="uni0441" unicode="&#x441;" horiz-adv-x="774" 
d="M12 336q0 55 8.5 114.5t18.5 118.5q31 164 75 269.5t106.5 167t147.5 85t199 23.5q80 0 148.5 -13.5t105.5 -27.5l-78 -307q-31 10 -74.5 18.5t-97.5 8.5q-18 0 -39.5 -4.5t-43 -26t-42 -68.5t-36.5 -133q-16 -92 -24.5 -154.5t-10.5 -109.5q70 0 148.5 13.5t127.5 27.5
v-311q-41 -14 -127 -33t-194 -19q-113 0 -176.5 30t-95 79t-39 114.5t-7.5 137.5z" />
    <glyph glyph-name="uni0442" unicode="&#x442;" horiz-adv-x="835" 
d="M57 772l62 318h788l-86 -318h-184l-141 -772h-371l141 772h-209z" />
    <glyph glyph-name="uni0443" unicode="&#x443;" horiz-adv-x="995" 
d="M25 20q53 -10 111.5 -17t123.5 -7q41 0 62.5 12t31.5 45l23 76l-236 -14l-67 966l381 23v-737h4l241 723h385l-419 -1104q-20 -55 -49 -110.5t-71 -100.5t-101.5 -73t-141.5 -28q-117 0 -185.5 11.5t-92.5 19.5v315z" />
    <glyph glyph-name="uni0444" unicode="&#x444;" horiz-adv-x="1445" 
d="M18 344q0 63 5.5 125.5t19.5 132.5q27 137 73 228.5t117.5 147.5t172 84t233.5 36l55 295l348 41l-63 -340q131 -12 214 -45t130 -80t64.5 -108.5t17.5 -131.5q0 -61 -5 -120.5t-20 -129.5q-27 -135 -73.5 -225t-120.5 -145.5t-175.5 -81t-234.5 -33.5l-51 -281l-348 -41
l59 322q-135 10 -217 39.5t-127 76t-59.5 105.5t-14.5 129zM369 334.5q0 -13.5 2 -25.5q16 -6 45.5 -11t72.5 -9l97 514q-47 -6 -77 -17.5t-49.5 -34t-32.5 -57.5t-26 -84q-8 -31 -14 -66.5t-10 -69.5t-6 -63.5t-2 -50.5v-25.5zM829 287q47 6 77 17t50.5 33.5t32.5 56.5
t25 85q8 31 14 67t10 70.5t6.5 64.5t2.5 50q0 12 -0.5 25.5t-2.5 25.5q-16 6 -46.5 11.5t-71.5 9.5z" />
    <glyph glyph-name="uni0445" unicode="&#x445;" horiz-adv-x="1036" 
d="M-102 0l288 561l-90 520l389 23l25 -426h4l197 412h415l-319 -551l123 -531l-383 -22l-72 458h-4l-158 -444h-415z" />
    <glyph glyph-name="uni0446" unicode="&#x446;" horiz-adv-x="1114" 
d="M-43 0l201 1090h370l-141 -775h170l141 775h373l-141 -775h94l-98 -534l-318 -35l45 254h-696z" />
    <glyph glyph-name="uni0447" unicode="&#x447;" horiz-adv-x="1034" 
d="M37 504q0 51 5 94t15 96l74 396h373l-94 -500q16 -2 24 -2h21q31 0 70.5 5t68.5 13l88 484h373l-199 -1090h-373l58 322q-57 -16 -115.5 -28.5t-106.5 -12.5q-82 0 -136 16t-87 46t-46 71t-13 90z" />
    <glyph glyph-name="uni0448" unicode="&#x448;" horiz-adv-x="1525" 
d="M-43 0l201 1090h364l-145 -795h143l148 795h364l-145 -795h147l148 795h364l-198 -1090h-1391z" />
    <glyph glyph-name="uni0449" unicode="&#x449;" horiz-adv-x="1587" 
d="M-43 0l201 1090h364l-145 -795h143l148 795h364l-145 -795h147l148 795h364l-145 -795h94l-94 -514l-318 -35l45 254h-1171z" />
    <glyph glyph-name="uni044A" unicode="&#x44a;" horiz-adv-x="1071" 
d="M59 793l54 297h526l-66 -353q47 10 94.5 16.5t94.5 6.5q82 0 132 -21.5t76.5 -57.5t36 -84t9.5 -103q0 -57 -17 -146q-20 -109 -63 -178.5t-111.5 -109.5t-164 -56t-220.5 -16q-123 0 -223 6t-147 12l143 787h-154zM487 266q10 -2 20.5 -2h27.5q33 0 56 8.5t37.5 31
t22.5 65.5t13 112q-8 2 -16.5 2h-18.5q-29 0 -58.5 -3t-46.5 -7z" />
    <glyph glyph-name="uni044B" unicode="&#x44b;" horiz-adv-x="1441" 
d="M-41 6l199 1084h370l-65 -353q47 10 94 16.5t94 6.5q82 0 132.5 -21.5t77 -57.5t35.5 -84t9 -103q0 -57 -16 -146q-20 -109 -63.5 -178.5t-112 -109.5t-163.5 -56t-220 -16q-123 0 -223.5 6t-147.5 12zM377 266q10 -2 20.5 -2h26.5q33 0 56.5 8.5t37.5 31t22.5 65.5
t12.5 112q-8 2 -16.5 2h-18.5q-29 0 -58.5 -3t-45.5 -7zM893 0l201 1090h368l-198 -1090h-371z" />
    <glyph glyph-name="uni044C" unicode="&#x44c;" horiz-adv-x="960" 
d="M-41 6l199 1084h370l-65 -353q47 10 94 16.5t94 6.5q82 0 132.5 -21.5t77 -57.5t35.5 -84t9 -103q0 -57 -16 -146q-20 -109 -63.5 -178.5t-112 -109.5t-163.5 -56t-220 -16q-123 0 -223.5 6t-147.5 12zM377 266q10 -2 20.5 -2h26.5q33 0 56.5 8.5t37.5 31t22.5 65.5
t12.5 112q-8 2 -16.5 2h-18.5q-29 0 -58.5 -3t-45.5 -7z" />
    <glyph glyph-name="uni044D" unicode="&#x44d;" horiz-adv-x="825" 
d="M-66 14l78 287q31 -10 92.5 -18.5t114.5 -8.5q63 0 102 32t62 114l-299 -12l53 262l277 12v67.5t-4 59.5q-39 0 -82 -3t-84 -9t-78 -13.5t-62 -13.5v295q20 6 56.5 15.5t82.5 16.5t98 12t105 5q113 0 179.5 -37t101.5 -94t46 -130t11 -142q0 -49 -3 -96.5t-13 -106.5
q-25 -152 -70 -254t-113.5 -164.5t-159.5 -89.5t-206 -27q-59 0 -110.5 6.5t-93.5 14.5t-81 20z" />
    <glyph glyph-name="uni044E" unicode="&#x44e;" horiz-adv-x="1509" 
d="M-43 0l201 1090h370l-71 -394h108q33 123 81 204t112.5 129t148.5 66.5t191 18.5q113 0 186.5 -29.5t116.5 -79t60.5 -115t17.5 -136.5q0 -55 -8.5 -115.5t-18.5 -120.5q-31 -164 -79 -269.5t-115.5 -167t-157.5 -85t-209 -23.5q-113 0 -186.5 30t-116.5 79t-60.5 114.5
t-17.5 137.5v45h-113l-67 -379h-373zM872 264q10 -2 19.5 -3t19.5 -1q20 0 43 4t44.5 28.5t43 79t39.5 154.5q20 104 27.5 174t7.5 121q-18 6 -39 6q-20 0 -42.5 -4t-44 -28.5t-43 -78.5t-40.5 -155q-20 -106 -27.5 -176t-7.5 -121z" />
    <glyph glyph-name="uni044F" unicode="&#x44f;" horiz-adv-x="1003" 
d="M-94 8l221 377q-43 31 -57.5 82t-14.5 117q0 68 19 151q18 88 47 157t81 114t138 68.5t221 23.5h101.5t134 -2t133 -4t96.5 -5l-201 -1087h-372l63 344l-41 -2l-184 -352zM426 567q12 -2 19.5 -2h15.5q35 0 59.5 2t36.5 6l51 279h-47q-47 0 -69.5 -22.5t-38.5 -94.5
q-10 -47 -16.5 -89t-10.5 -79z" />
    <glyph glyph-name="uni0450" unicode="&#x450;" horiz-adv-x="946" 
d="M10 334q0 55 8.5 115.5t18.5 119.5q31 164 79 269.5t115.5 167t157.5 85t209 23.5q102 0 166.5 -22.5t101.5 -62.5t50.5 -93t13.5 -117q0 -94 -22.5 -198.5t-61.5 -208.5l-463 -29q-2 -12 -2 -24.5v-22.5q0 -18 1 -32.5t3 -27.5q63 0 128 4.5t121 10.5t98 13t61 13v-284
q-37 -14 -150 -36t-285 -22q-113 0 -181 29t-105 78t-49.5 114.5t-12.5 137.5zM385 1272l77 215l435 -176l-62 -160zM412 588l143 12q16 68 27.5 129.5t15.5 99.5q-10 4 -24.5 6.5t-28.5 2.5q-20 0 -39 -5.5t-35 -30t-31.5 -74.5t-27.5 -140z" />
    <glyph glyph-name="uni0451" unicode="&#x451;" horiz-adv-x="946" 
d="M10 334q0 55 8.5 115.5t18.5 119.5q31 164 79 269.5t115.5 167t157.5 85t209 23.5q102 0 166.5 -22.5t101.5 -62.5t50.5 -93t13.5 -117q0 -94 -22.5 -198.5t-61.5 -208.5l-463 -29q-2 -12 -2 -24.5v-22.5q0 -18 1 -32.5t3 -27.5q63 0 128 4.5t121 10.5t98 13t61 13v-284
q-37 -14 -150 -36t-285 -22q-113 0 -181 29t-105 78t-49.5 114.5t-12.5 137.5zM260 1186l39 209l299 20l-39 -209zM412 588l143 12q16 68 27.5 129.5t15.5 99.5q-10 4 -24.5 6.5t-28.5 2.5q-20 0 -39 -5.5t-35 -30t-31.5 -74.5t-27.5 -140zM639 1186l39 209l299 20l-39 -209
z" />
    <glyph glyph-name="uni0452" unicode="&#x452;" horiz-adv-x="1097" 
d="M-43 0l205 1116l-131 -6l37 201l131 6l14 76l379 41l-19 -97l273 15l-37 -201l-272 -14l-31 -170h4q27 18 61.5 39.5t76.5 40t88 31t93 12.5q129 0 176.5 -83t47.5 -237q0 -176 -29 -325.5t-78 -273.5t-116.5 -224.5t-143.5 -177.5l-295 182q123 154 200 339t77 400
q0 20 -1 39t-3 29q-51 0 -107.5 -14.5t-97.5 -36.5l-129 -707h-373z" />
    <glyph glyph-name="uni0453" unicode="&#x453;" horiz-adv-x="755" 
d="M-43 0l201 1090h667l-84 -318h-272l-139 -772h-373zM266 1311l487 176l52 -215l-498 -121z" />
    <glyph glyph-name="uni0454" unicode="&#x454;" horiz-adv-x="827" 
d="M20 377q0 49 3.5 96t13.5 107q25 152 70 254t113.5 164.5t159.5 89t206 26.5q59 0 110.5 -6t93 -14.5t80.5 -20.5l-77 -287q-16 6 -41 10.5t-54.5 8.5t-60.5 6t-57 2q-53 0 -94.5 -29.5t-63.5 -111.5l299 12l-53 -262l-277 -12v-70t4 -61q39 0 82 3t84 9t78 13t61 13
v-294q-20 -6 -56 -15.5t-82 -16.5t-98 -12.5t-106 -5.5q-113 0 -179 37t-102 94.5t-46.5 129t-10.5 143.5z" />
    <glyph glyph-name="uni0455" unicode="&#x455;" horiz-adv-x="745" 
d="M-12 12v330q57 -20 122.5 -31.5t155.5 -13.5q4 12 4 22q0 29 -12 52.5t-35 58.5l-71 113q-37 57 -57.5 114.5t-20.5 122.5q0 164 116.5 249t311.5 85q39 0 81 -5t79.5 -11t68.5 -14.5t47 -14.5l-71 -309q-35 10 -85.5 21.5t-97.5 11.5q-76 0 -76 -50q0 -23 10.5 -44
t32.5 -54l76 -110q35 -53 58.5 -114t23.5 -130q0 -152 -101.5 -234t-293.5 -82q-92 0 -166 13.5t-100 23.5z" />
    <glyph glyph-name="uni0456" unicode="&#x456;" horiz-adv-x="507" 
d="M-43 0l199 1081l376 23l-202 -1104h-373zM164 1176l43 235l393 25l-43 -236z" />
    <glyph glyph-name="uni0457" unicode="&#x457;" horiz-adv-x="507" 
d="M-43 0l199 1081l376 23l-202 -1104h-373zM18 1186l39 209l299 20l-39 -209zM397 1186l39 209l299 20l-39 -209z" />
    <glyph glyph-name="uni0458" unicode="&#x458;" horiz-adv-x="518" 
d="M-209 -133q59 57 108.5 111.5t86.5 109.5l180 993l377 23l-174 -942q-10 -57 -20.5 -103.5t-24 -85.5t-34 -73.5t-50.5 -67.5q-31 -33 -77 -73t-112 -87zM174 1176l43 235l393 25l-43 -236z" />
    <glyph glyph-name="uni0459" unicode="&#x459;" horiz-adv-x="1552" 
d="M-47 0v299q14 -2 26.5 -3t28.5 -1q20 0 34.5 5t25 18.5t18.5 36t18 57.5l187 678h829l-65 -353q47 10 94 16.5t94 6.5q82 0 132 -21.5t77 -57.5t36 -84t9 -103q0 -57 -16 -146q-20 -109 -63.5 -178.5t-112 -109.5t-163.5 -56t-220 -16q-123 0 -223.5 6t-147.5 12l139 766
h-121l-120 -475q-18 -70 -41 -126t-64 -96t-105.5 -61.5t-164.5 -21.5q-45 0 -67.5 2t-53.5 6zM969 266q10 -2 20 -2h27q33 0 56.5 8.5t37.5 31t22.5 65.5t12.5 112q-8 2 -16.5 2h-18.5q-29 0 -58.5 -3t-45.5 -7z" />
    <glyph glyph-name="uni045A" unicode="&#x45a;" horiz-adv-x="1509" 
d="M-43 0l201 1090h370l-67 -375h176l70 375h370l-65 -353q47 10 94 16.5t94 6.5q82 0 132 -21.5t77 -57.5t36 -84t9 -103q0 -57 -16 -146q-20 -109 -63.5 -178.5t-112 -109.5t-163.5 -56t-220 -16q-123 0 -223.5 6t-147.5 12l74 404h-179l-73 -410h-373zM926 266
q10 -2 20 -2h27q33 0 56.5 8.5t37.5 31t22.5 65.5t12.5 112q-8 2 -16.5 2h-18.5q-29 0 -58.5 -3t-45.5 -7z" />
    <glyph glyph-name="uni045B" unicode="&#x45b;" horiz-adv-x="1054" 
d="M-43 0l205 1116l-131 -6l37 201l131 6l14 76l379 41l-19 -97l273 15l-37 -201l-272 -14l-31 -170h4q27 18 61.5 39.5t76.5 40t88 31t93 12.5q63 0 105.5 -16.5t66 -41t32.5 -56.5t9 -63q0 -14 -1 -25t-3 -22l-157 -866h-373l139 758q-51 0 -99 -14.5t-89 -36.5l-129 -707
h-373z" />
    <glyph glyph-name="uni045C" unicode="&#x45c;" horiz-adv-x="1030" 
d="M-43 0l201 1090h370l-77 -431l30 3l248 419l404 23l-347 -582l146 -512l-383 -22l-105 428l-38 -2l-76 -414h-373zM383 1311l487 176l52 -215l-498 -121z" />
    <glyph glyph-name="uni045D" unicode="&#x45d;" horiz-adv-x="1128" 
d="M-41 10l199 1080h356l-100 -529h4l370 543l359 -23l-197 -1081h-358l98 522h-4l-364 -534zM455 1272l77 215l435 -176l-62 -160z" />
    <glyph glyph-name="uni045E" unicode="&#x45e;" horiz-adv-x="995" 
d="M25 20q53 -10 111.5 -17t123.5 -7q41 0 62.5 12t31.5 45l23 76l-236 -14l-67 966l381 23v-737h4l241 723h385l-419 -1104q-20 -55 -49 -110.5t-71 -100.5t-101.5 -73t-141.5 -28q-117 0 -185.5 11.5t-92.5 19.5v315zM311 1423l195 41q4 -53 30.5 -89t91.5 -36
q70 0 106 36t56 89l180 -41q-23 -55 -52 -104t-71 -85t-98.5 -56.5t-132.5 -20.5q-147 0 -222 75t-83 191z" />
    <glyph glyph-name="uni045F" unicode="&#x45f;" horiz-adv-x="1050" 
d="M-43 0l201 1090h370l-141 -775h170l141 775h373l-199 -1090h-294l-39 -219l-318 -35l45 254h-309z" />
    <glyph glyph-name="uni0490" unicode="&#x490;" horiz-adv-x="784" 
d="M-37 0l248 1352h348l45 252h326l-105 -582h-303l-186 -1022h-373z" />
    <glyph glyph-name="uni0491" unicode="&#x491;" horiz-adv-x="749" 
d="M-43 0l201 1090h350l37 200l307 33l-100 -551h-283l-139 -772h-373z" />
    <glyph glyph-name="uni0492" unicode="&#x492;" horiz-adv-x="800" 
d="M2 571l33 183h115l110 598h645l-86 -330h-248l-49 -268h195l-33 -183h-195l-104 -571h-373l105 571h-115z" />
    <glyph glyph-name="uni0493" unicode="&#x493;" horiz-adv-x="831" 
d="M-27 381l33 182h127l96 527h668l-84 -318h-272l-39 -209h194l-32 -182h-195l-68 -381h-372l69 381h-125z" />
    <glyph glyph-name="uni0496" unicode="&#x496;" horiz-adv-x="1630" 
d="M-113 0l400 682l-156 659l383 23l109 -537l30 2l97 523h372l-94 -512l29 2l286 510h392l-400 -682l68 -336h158l-109 -600h-336l47 258l-76 -4l-90 540l-26 -2l-97 -526h-372l94 518l-29 -2l-288 -516h-392z" />
    <glyph glyph-name="uni0497" unicode="&#x497;" horiz-adv-x="1562" 
d="M-121 -12l330 547l-129 546l383 23l92 -465l35 2l82 449h370l-77 -431l28 3l236 419l403 23l-332 -582l46 -207h137l-99 -534l-317 -35l45 248l-82 -6l-76 428l-34 -2l-76 -414h-373l72 397l-31 -2l-229 -385z" />
    <glyph glyph-name="uni049A" unicode="&#x49a;" horiz-adv-x="1124" 
d="M-37 0l248 1352h373l-95 -512l37 2l310 510h391l-430 -682l84 -336h174l-109 -600h-336l45 254l-73 -6l-117 546l-33 -2l-96 -526h-373z" />
    <glyph glyph-name="uni049B" unicode="&#x49b;" horiz-adv-x="1062" 
d="M-43 0l201 1090h370l-77 -431l30 3l248 419l404 23l-347 -582l52 -207h149l-98 -534l-318 -35l45 248l-86 -6l-86 428l-38 -2l-76 -414h-373z" />
    <glyph glyph-name="uni04A2" unicode="&#x4a2;" horiz-adv-x="1136" 
d="M-37 0l248 1352h373l-92 -498h178l92 498h373l-187 -1018h101l-109 -600h-336l47 266h-137l94 516h-178l-94 -516h-373z" />
    <glyph glyph-name="uni04A3" unicode="&#x4a3;" horiz-adv-x="1122" 
d="M-43 0l201 1090h370l-71 -394h178l72 394h372l-141 -775h94l-98 -534l-318 -35l46 254h-154l67 379h-178l-67 -379h-373z" />
    <glyph glyph-name="uni04AE" unicode="&#x4ae;" horiz-adv-x="1032" 
d="M121 1346l393 24l20 -579h5l233 561h410l-527 -910l-80 -442h-370l84 463z" />
    <glyph glyph-name="uni04AF" unicode="&#x4af;" horiz-adv-x="1021" 
d="M63 1081l381 23l25 -653h4l262 639h395l-548 -1076l-56 -301l-379 -41l64 344z" />
    <glyph glyph-name="uni04B0" unicode="&#x4b0;" horiz-adv-x="1064" 
d="M51 274l33 183h225l-166 889l394 24l20 -579h4l234 561h409l-518 -895h236l-33 -183h-242l-49 -274h-371l49 274h-225z" />
    <glyph glyph-name="uni04B1" unicode="&#x4b1;" horiz-adv-x="1032" 
d="M-16 -66l32 183h187l-133 964l381 23l24 -653h4l262 639h396l-498 -973h190l-32 -183h-224l-41 -221l-378 -41l47 262h-217z" />
    <glyph glyph-name="uni04B2" unicode="&#x4b2;" horiz-adv-x="1091" 
d="M-115 0l371 698l-100 648l393 24l14 -481h4l197 463h426l-383 -676l65 -342h150l-109 -600h-335l45 254l-80 -6l-43 499h-4l-195 -481h-416z" />
    <glyph glyph-name="uni04B3" unicode="&#x4b3;" horiz-adv-x="1062" 
d="M-102 0l288 561l-90 520l389 23l25 -426h4l197 412h415l-319 -551l43 -224h137l-98 -534l-318 -35l45 246l-88 -6l-53 458h-4l-158 -444h-415z" />
    <glyph glyph-name="uni04B6" unicode="&#x4b6;" horiz-adv-x="1107" 
d="M72 666q0 51 5 94t15 96l92 496h373l-111 -590q16 -2 24.5 -2h21.5q31 0 69.5 5t67.5 13l106 574h373l-188 -1018h100l-109 -600h-336l48 266h-138l88 477q-61 -14 -122.5 -24.5t-108.5 -10.5q-80 0 -132 16.5t-83 46.5t-43 70.5t-12 90.5z" />
    <glyph glyph-name="uni04B7" unicode="&#x4b7;" horiz-adv-x="1097" 
d="M37 504q0 51 5 94t15 96l74 396h373l-94 -500q16 -2 24 -2h21q31 0 70.5 5t68.5 13l88 484h373l-142 -775h95l-99 -534l-317 -35l45 254h-154l58 322q-57 -16 -115.5 -28.5t-106.5 -12.5q-82 0 -136 16t-87 46t-46 71t-13 90z" />
    <glyph glyph-name="uni04BA" unicode="&#x4ba;" horiz-adv-x="1042" 
d="M-37 0l250 1352h373l-88 -478q61 14 122.5 24.5t108.5 10.5q80 0 132 -16t83 -46t43 -71t12 -90q0 -51 -5 -94t-15 -96l-92 -496h-373l111 590q-16 2 -24.5 2h-20.5q-31 0 -70 -5t-68 -14l-106 -573h-373z" />
    <glyph glyph-name="uni04BB" unicode="&#x4bb;" horiz-adv-x="1054" 
d="M-43 0l256 1393l379 41l-82 -443h4q27 18 61.5 40t76.5 40.5t88 30.5t94 12q63 0 105 -16.5t65.5 -41t33 -56t9.5 -62.5q0 -14 -1.5 -25.5t-3.5 -21.5l-161 -891h-373l143 782q-51 0 -99 -14t-89 -37l-133 -731h-373z" />
    <glyph glyph-name="uni04C0" unicode="&#x4c0;" horiz-adv-x="522" 
d="M-37 0l248 1352h373l-248 -1352h-373z" />
    <glyph glyph-name="uni04CF" unicode="&#x4cf;" horiz-adv-x="522" 
d="M-37 0l260 1413h373l-260 -1413h-373z" />
    <glyph glyph-name="uni04D8" unicode="&#x4d8;" horiz-adv-x="976" 
d="M8 348q0 51 9.5 115.5t23.5 131.5t33.5 131.5t42.5 117.5l467 18q6 53 10 99.5t0 76.5q-12 2 -25.5 2h-27.5q-37 0 -85 -2t-99.5 -7t-103.5 -13t-97 -21l57 334q33 10 78 18.5t95 14.5t102.5 9t99.5 3q123 0 196.5 -29.5t114.5 -82t54.5 -124t13.5 -153.5
q0 -92 -10.5 -193.5t-32.5 -211.5q-33 -164 -75 -279t-105.5 -187.5t-157.5 -106.5t-232 -34q-106 0 -173.5 28t-105.5 77t-52.5 117.5t-14.5 150.5zM356 289q12 -2 21.5 -2h23.5q57 0 90 69.5t56 221.5l-156 -9q-16 -72 -26.5 -143.5t-8.5 -136.5z" />
    <glyph glyph-name="uni04D9" unicode="&#x4d9;" horiz-adv-x="946" 
d="M-4 279q0 94 22.5 193t61.5 204l463 26q2 14 2 26.5v23.5q0 16 -1 32.5t-3 28.5q-63 0 -128 -4t-121 -10t-98 -13.5t-61 -13.5v285q37 14 149.5 35.5t284.5 21.5q113 0 180.5 -30.5t104.5 -82t48 -119t11 -139.5q0 -55 -8 -115.5t-18 -119.5q-31 -164 -78 -267.5
t-112.5 -163t-154.5 -81t-204 -21.5q-102 0 -169 24t-104.5 64.5t-52 96t-14.5 119.5zM328 260q18 -8 53 -8q20 0 38.5 5t35 28.5t31 74t28.5 140.5l-143 -13q-16 -68 -27.5 -128t-15.5 -99z" />
    <glyph glyph-name="uni04E2" unicode="&#x4e2;" horiz-adv-x="1136" 
d="M-35 10l248 1342h348l-119 -652h4l385 662l365 -23l-246 -1339h-350l123 674h-4l-389 -686zM458 1434l33 172l504 16l-33 -176z" />
    <glyph glyph-name="uni04E3" unicode="&#x4e3;" horiz-adv-x="1128" 
d="M-41 10l199 1080h356l-100 -529h4l370 543l359 -23l-197 -1081h-358l98 522h-4l-364 -534zM389 1188l39 211l567 16l-39 -211z" />
    <glyph glyph-name="uni04E8" unicode="&#x4e8;" horiz-adv-x="1095" 
d="M35 381q0 92 10 182t35 201q39 174 91 292t127 189.5t175 102t234 30.5q111 0 184.5 -30.5t117.5 -85t62.5 -129t18.5 -162.5q0 -92 -10.5 -182.5t-35.5 -200.5q-39 -174 -91 -292t-126.5 -189.5t-175 -102.5t-233.5 -31q-111 0 -184.5 31t-117.5 85t-62.5 129t-18.5 163
zM397 303q12 -4 28.5 -6t39.5 -2q70 0 111.5 52t80.5 185h-245q-6 -59 -10.5 -117.5t-4.5 -111.5zM473 836h242q6 55 10 109t4 106q-12 4 -28 6t-39 2q-70 0 -112 -49t-77 -174z" />
    <glyph glyph-name="uni04E9" unicode="&#x4e9;" horiz-adv-x="1009" 
d="M10 334q0 55 8.5 115.5t18.5 119.5q31 164 79 269.5t115.5 167t157.5 85t209 23.5q113 0 186.5 -29.5t116.5 -79t60.5 -115t17.5 -136.5q0 -55 -8 -115.5t-19 -120.5q-31 -164 -79 -269.5t-115.5 -167t-157.5 -85t-209 -23.5q-113 0 -186.5 30t-116.5 79t-60.5 114.5
t-17.5 137.5zM352 248q10 -2 29 -3t29 -1q25 0 47 5t43.5 24.5t41 57.5t38.5 105h-213q-8 -59 -11.5 -106t-3.5 -82zM410 655h211q10 59 13 104.5t3 80.5q-10 4 -28.5 5t-28.5 1q-25 0 -47.5 -5t-44 -24.5t-41 -57.5t-37.5 -104z" />
    <glyph glyph-name="uni04EE" unicode="&#x4ee;" horiz-adv-x="997" 
d="M-29 16l29 346q23 -8 57.5 -15t86 -14t124.5 -11l-129 1015l385 23l-4 -713h4l228 705h387l-453 -1065q-27 -61 -57.5 -118.5t-74.5 -100.5t-109.5 -69t-161.5 -26q-113 0 -184.5 13.5t-127.5 29.5zM356 1434l33 172l504 16l-33 -176z" />
    <glyph glyph-name="uni04EF" unicode="&#x4ef;" horiz-adv-x="995" 
d="M25 20q53 -10 111.5 -17t123.5 -7q41 0 62.5 12t31.5 45l23 76l-236 -14l-67 966l381 23v-737h4l241 723h385l-419 -1104q-20 -55 -49 -110.5t-71 -100.5t-101.5 -73t-141.5 -28q-117 0 -185.5 11.5t-92.5 19.5v315zM322 1188l39 211l567 16l-39 -211z" />
    <glyph glyph-name="uni2000" unicode="&#x2000;" horiz-adv-x="833" 
 />
    <glyph glyph-name="uni2001" unicode="&#x2001;" horiz-adv-x="1667" 
 />
    <glyph glyph-name="uni2002" unicode="&#x2002;" horiz-adv-x="833" 
 />
    <glyph glyph-name="uni2003" unicode="&#x2003;" horiz-adv-x="1667" 
 />
    <glyph glyph-name="uni2004" unicode="&#x2004;" horiz-adv-x="555" 
 />
    <glyph glyph-name="uni2005" unicode="&#x2005;" horiz-adv-x="416" 
 />
    <glyph glyph-name="uni2006" unicode="&#x2006;" horiz-adv-x="277" 
 />
    <glyph glyph-name="uni2007" unicode="&#x2007;" horiz-adv-x="1034" 
 />
    <glyph glyph-name="uni2008" unicode="&#x2008;" horiz-adv-x="438" 
 />
    <glyph glyph-name="uni2009" unicode="&#x2009;" horiz-adv-x="333" 
 />
    <glyph glyph-name="uni200A" unicode="&#x200a;" horiz-adv-x="92" 
 />
    <glyph glyph-name="uni200B" unicode="&#x200b;" horiz-adv-x="0" 
 />
    <glyph glyph-name="uni2010" unicode="&#x2010;" horiz-adv-x="733" 
d="M43 463l53 299h596l-55 -299h-594z" />
    <glyph glyph-name="uni2011" unicode="&#x2011;" horiz-adv-x="733" 
d="M43 463l53 299h596l-55 -299h-594z" />
    <glyph glyph-name="figuredash" unicode="&#x2012;" horiz-adv-x="733" 
d="M43 463l53 299h596l-55 -299h-594z" />
    <glyph glyph-name="endash" unicode="&#x2013;" horiz-adv-x="958" 
d="M43 463l53 299h822l-56 -299h-819z" />
    <glyph glyph-name="emdash" unicode="&#x2014;" horiz-adv-x="1181" 
d="M43 463l53 299h1045l-54 -299h-1044z" />
    <glyph glyph-name="uni2015" unicode="&#x2015;" horiz-adv-x="1181" 
d="M43 463l53 299h1045l-54 -299h-1044z" />
    <glyph glyph-name="quoteleft" unicode="&#x2018;" horiz-adv-x="401" 
d="M94 852l47 254l127 246h201l-94 -500h-281z" />
    <glyph glyph-name="quoteright" unicode="&#x2019;" horiz-adv-x="397" 
d="M106 852l95 500h280l-47 -254l-127 -246h-201z" />
    <glyph glyph-name="quotesinglbase" unicode="&#x201a;" horiz-adv-x="403" 
d="M-80 -182l94 499h281l-47 -254l-127 -245h-201z" />
    <glyph glyph-name="quotedblleft" unicode="&#x201c;" horiz-adv-x="784" 
d="M94 852l47 254l127 246h201l-94 -500h-281zM477 852l47 254l127 246h201l-94 -500h-281z" />
    <glyph glyph-name="quotedblright" unicode="&#x201d;" horiz-adv-x="780" 
d="M106 852l95 500h280l-47 -254l-127 -246h-201zM489 852l95 500h280l-47 -254l-127 -246h-201z" />
    <glyph glyph-name="quotedblbase" unicode="&#x201e;" horiz-adv-x="784" 
d="M-80 -182l94 499h281l-47 -254l-127 -245h-201zM301 -182l94 499h281l-47 -254l-127 -245h-201z" />
    <glyph glyph-name="dagger" unicode="&#x2020;" horiz-adv-x="843" 
d="M78 852l41 225h123q18 0 69 -9t103 -19q0 55 1 107t5 73l22 123h226l-23 -123q-4 -20 -21.5 -72.5t-37.5 -105.5q55 10 108.5 18t73.5 8h123l-41 -225h-123q-20 0 -71.5 8t-102.5 19v-104.5t-4 -72.5l-74 -401h-225l74 401q4 18 21 70.5t38 106.5q-55 -10 -109.5 -18.5
t-72.5 -8.5h-123z" />
    <glyph glyph-name="daggerdbl" unicode="&#x2021;" horiz-adv-x="882" 
d="M-6 274l43 226h123q18 0 68.5 -8.5t101.5 -18.5q0 53 1 104.5t5 71.5l10 53q4 18 21.5 70.5t38.5 106.5q-55 -10 -109.5 -18.5t-73.5 -8.5h-123l41 225h123q18 0 69.5 -9t102.5 -19q0 55 1 107t5 73l23 123h225l-22 -123q-4 -20 -21.5 -72.5t-38.5 -105.5q55 10 108.5 18
t74.5 8h122l-41 -225h-122q-20 0 -71.5 8t-103.5 19v-104.5t-4 -72.5l-8 -47q-4 -25 -22.5 -78t-38.5 -106q55 10 109.5 19.5t74.5 9.5h123l-43 -226h-123q-20 0 -71.5 8.5t-102.5 18.5v-105.5t-4 -72.5l-23 -123h-225l23 123q4 18 21.5 71.5t37.5 106.5
q-57 -10 -110.5 -18.5t-71.5 -8.5h-123z" />
    <glyph glyph-name="bullet" unicode="&#x2022;" horiz-adv-x="669" 
d="M141 602l91 493h437l-87 -493h-441z" />
    <glyph glyph-name="ellipsis" unicode="&#x2026;" horiz-adv-x="1421" 
d="M-45 0l65 352h312l-62 -352h-315zM447 0l65 352h312l-62 -352h-315zM938 0l65 352h312l-62 -352h-315z" />
    <glyph glyph-name="uni202F" unicode="&#x202f;" horiz-adv-x="333" 
 />
    <glyph glyph-name="perthousand" unicode="&#x2030;" horiz-adv-x="2068" 
d="M90 881q0 53 7 112.5t30 136.5q23 82 54.5 130.5t71.5 74t89 33.5t109 8q111 0 166 -56t55 -151q0 -53 -8.5 -112.5t-28.5 -136.5q-23 -80 -52.5 -128.5t-69.5 -75t-90.5 -34.5t-111.5 -8q-119 0 -170 56t-51 151zM150 0l903 1352h254l-904 -1352h-253zM307 838
q12 -2 15.5 -2h11.5q14 0 26.5 4t22.5 17t18.5 39t18.5 67q6 20 11 49.5t10 62.5t9.5 63.5t4.5 55.5v18q-8 2 -23 2q-16 0 -29.5 -5t-23.5 -19t-20.5 -40t-20.5 -69q-10 -45 -20.5 -109.5t-10.5 -113.5v-20zM784 182q0 53 7.5 112.5t29.5 137.5q23 82 54.5 130t71.5 74
t89 34t109 8q111 0 166 -56.5t55 -150.5q0 -53 -8 -112.5t-29 -137.5q-23 -80 -52.5 -128t-69.5 -74.5t-90 -35t-111 -8.5q-119 0 -170.5 56.5t-51.5 150.5zM1001 139q12 -2 15.5 -2h11.5q14 0 26.5 4t22.5 17.5t18.5 39t18.5 66.5q6 20 11 50l10.5 63t9.5 63.5t4 55.5v18
q-8 2 -23 2q-16 0 -29.5 -5t-23.5 -19.5t-20.5 -40t-20.5 -68.5q-10 -45 -20.5 -109.5t-10.5 -113.5v-21zM1417 182q0 53 7.5 112.5t29.5 137.5q23 82 54.5 130t71.5 74t89 34t109 8q111 0 166 -56.5t55 -150.5q0 -53 -8.5 -112.5t-28.5 -137.5q-23 -80 -52.5 -128
t-69.5 -74.5t-90.5 -35t-111.5 -8.5q-119 0 -170 56.5t-51 150.5zM1634 139q12 -2 16.5 -2h10.5q14 0 26.5 4t22.5 17.5t18.5 39t18.5 66.5q6 20 11 50l10.5 63t9.5 63.5t4 55.5v18q-8 2 -23 2q-16 0 -29.5 -5t-23.5 -19.5t-20.5 -40t-20.5 -68.5q-10 -45 -20.5 -109.5
t-10.5 -113.5v-21z" />
    <glyph glyph-name="guilsinglleft" unicode="&#x2039;" horiz-adv-x="628" 
d="M29 582l274 479l354 22l-301 -501l158 -459l-326 -23z" />
    <glyph glyph-name="guilsinglright" unicode="&#x203a;" horiz-adv-x="626" 
d="M-39 80l303 502l-158 458l324 23l160 -481l-275 -480z" />
    <glyph glyph-name="fraction" unicode="&#x2044;" horiz-adv-x="907" 
d="M-113 0l904 1352h253l-903 -1352h-254z" />
    <glyph glyph-name="uni205F" unicode="&#x205f;" horiz-adv-x="416" 
 />
    <glyph glyph-name="lira" unicode="&#x20a4;" horiz-adv-x="892" 
d="M-12 0v262l153 176h-118l30 170h170l10 92h-163l30 170h150l10 95q10 106 37 184t75 128t119.5 74.5t174.5 24.5q106 0 175.5 -15t114.5 -34l-73 -317q-47 16 -85 23t-75 7q-88 0 -100 -75l-13 -95h236l-33 -170h-227l-13 -92h226l-31 -170h-246l-82 -104h361l-88 -334
h-725z" />
    <glyph glyph-name="Euro" unicode="&#x20ac;" horiz-adv-x="970" 
d="M8 442l33 183h135q4 23 9 48l10 50h-136l35 182h144q35 123 83 212t116.5 146.5t160.5 85t213 27.5q59 0 128 -14t110 -31l-78 -319q-29 8 -87.5 18t-125.5 10q-55 0 -87 -28.5t-57 -106.5h281l-33 -182h-295q-6 -23 -10 -47.5t-8 -50.5h295l-33 -183h-287
q-4 -33 -6 -64.5t-2 -62.5q199 0 346 43l-63 -335q-20 -8 -53 -16.5t-72 -15.5t-80 -11.5t-78 -4.5q-115 0 -186.5 27t-111.5 76t-53 117.5t-13 150.5v47.5t2 48.5h-146z" />
    <glyph glyph-name="uni20B4" unicode="&#x20b4;" horiz-adv-x="921" 
d="M14 459l31 170h182l90 100h-254l31 170h377q35 41 51.5 74t18.5 69q-33 0 -73 -2t-82 -6t-83 -8t-78 -10v330q18 4 57.5 9t89.5 10t105 9t109 4q178 0 258 -67.5t80 -198.5q0 -53 -16.5 -107.5t-43.5 -105.5h70l-31 -170h-155l-93 -100h230l-31 -170h-358
q-39 -45 -57.5 -78t-18.5 -62q16 -2 33.5 -3t31.5 -1q72 0 142.5 9.5t120.5 25.5l-60 -344q-39 -12 -126 -22.5t-197 -10.5q-180 0 -257 75t-77 196q0 66 15 118t44 97h-76z" />
    <glyph glyph-name="uni20BA" unicode="&#x20ba;" horiz-adv-x="1095" 
d="M18 418l37 190l146 41l20 109l-147 -41l35 188l147 41l74 406h370l-55 -293l281 82l-37 -189l-279 -82l-20 -108l280 82l-34 -189l-281 -82l-45 -247q63 4 121.5 36.5t105.5 122.5l279 -176q-51 -104 -121 -169.5t-147.5 -101.5t-160.5 -49.5t-163 -13.5q-123 0 -204 7.5
t-138 19.5l84 459z" />
    <glyph glyph-name="trademark" unicode="&#x2122;" horiz-adv-x="1591" 
d="M170 1141l39 211h522l-49 -211h-131l-109 -600h-235l110 600h-147zM606 541l203 811h293l10 -434h4l152 434h313l-82 -805l-229 -12l51 423h-4l-174 -417h-189l-24 420h-4l-97 -420h-223z" />
    <glyph glyph-name="uni25FC" unicode="&#x25fc;" horiz-adv-x="1105" 
d="M0 0v1106h1106v-1106h-1106z" />
    <glyph glyph-name="uniFB01" unicode="&#xfb01;" horiz-adv-x="1169" 
d="M10 0l121 655l-59 174l16 123l98 6l25 136q14 80 35.5 143t58.5 106t95.5 67t144.5 24q115 0 183.5 -12.5t102.5 -24.5l-57 -285q-27 4 -63.5 8t-71.5 4h-25.5t-29.5 -2l-27 -139l621 37l-187 -1020h-373l127 692l-237 -14l-125 -678h-373zM885 1122l53 291l322 21
l-54 -291z" />
    <glyph glyph-name="uniFB02" unicode="&#xfb02;" horiz-adv-x="1228" 
d="M10 0l121 655l-59 174l16 123l98 6l25 136q14 80 35.5 143t58.5 106t95.5 67t144.5 24q115 0 193.5 -14.5t113.5 -26.5l-70 -279q-27 4 -67.5 8t-75.5 4h-25.5t-29.5 -2l-27 -141l205 12l-55 -303l-199 -14l-125 -678h-373zM678 0l256 1393l379 41l-262 -1434h-373z" />
    </font>
</defs>
</svg>
